<svg width="42" height="27" viewBox="0 0 42 27" fill="none" xmlns="http://www.w3.org/2000/svg">
<mask id="path-1-inside-1_33_226" fill="white">
<path d="M41.4812 18.8877L41.988 18.8808L41.9076 19.3785C41.7525 20.3374 41.5003 21.1307 41.1581 21.7365C40.5098 22.8839 39.6525 23.1248 39.0474 23.1249C39.0473 23.1249 39.0472 23.1249 39.047 23.1249C38.6881 23.1249 38.3029 23.0422 37.9024 22.8793C36.8861 22.4675 35.8308 21.9395 34.6763 21.2651L33.9179 20.8221L34.7376 20.505C38.5313 19.0374 40.8584 18.896 41.4812 18.8877ZM8.74433 20.3645L8.15822 20.69L8.70399 21.0788C8.76153 21.1198 14.4693 25.1831 15.4858 25.6629C15.5735 25.7044 15.6864 25.766 15.8171 25.8373C16.5258 26.2237 17.7117 26.8705 19.3876 26.8705C19.3879 26.8705 19.388 26.8705 19.3882 26.8705C20.9473 26.8703 22.5826 26.2962 24.2484 25.164C33.9022 18.601 40.0607 18.4116 40.7311 18.4116C40.7687 18.4116 40.7897 18.4122 40.7936 18.4123L42 18.453L41.0873 17.6683C41.0082 17.6003 39.0572 15.9777 31.0123 13.7106L30.9295 13.6873L30.844 13.6978C29.4311 13.8711 16.8226 15.5221 9.30756 20.0572C9.19282 20.1276 9.08385 20.1846 8.96839 20.2449C8.89636 20.2825 8.82183 20.3215 8.74433 20.3645ZM30.9057 13.21L31.3801 13.1558L31.2719 12.6932C31.2461 12.5825 30.6184 9.94974 28.8841 7.09028C27.8608 5.4032 26.6633 3.99155 25.325 2.89462C23.6408 1.51431 21.7308 0.632516 19.6478 0.273808C18.5908 0.0921025 17.5001 0 16.4059 0C13.6744 0 10.9532 0.569519 8.53625 1.647L8.37338 1.71961L8.31118 1.88603C8.14474 2.33154 7.83561 3.73757 8.55879 7.16281C9.32209 10.7835 10.7002 15.8821 11.2573 17.9061L11.3899 18.3881L11.8464 18.1791C19.8708 14.5037 30.7963 13.2225 30.9057 13.21ZM0.0254885 14.815C0.139974 16.7466 0.642955 18.7809 1.52041 20.8612L1.54265 20.914L1.57828 20.959C1.63413 21.0298 2.16418 21.6503 3.54029 21.6503C3.54046 21.6503 3.54038 21.6503 3.54055 21.6503C4.98 21.6502 6.81728 20.9816 9.00148 19.663C9.5173 19.3536 10.0516 19.0572 10.5886 18.7827L10.8962 18.6255L10.8047 18.2937C10.2276 16.2023 8.80132 10.9394 8.02348 7.24826C7.64426 5.44684 7.49338 3.97036 7.57499 2.85996L7.63376 2.06002L6.93625 2.46266C3.91434 4.20714 1.76493 6.69302 0.720238 9.65157C0.151583 11.262 -0.0821751 12.9992 0.0254885 14.815Z"/>
</mask>
<path d="M41.4812 18.8877L41.508 20.8875L41.5081 20.8875L41.4812 18.8877ZM41.988 18.8808L43.9624 19.1999L44.3422 16.849L41.9611 16.881L41.988 18.8808ZM41.9076 19.3785L43.8819 19.6979L43.882 19.6976L41.9076 19.3785ZM41.1581 21.7365L42.8993 22.7204L42.8994 22.7203L41.1581 21.7365ZM39.0474 23.1249V25.1249H39.0477L39.0474 23.1249ZM37.9024 22.8793L38.656 21.0267L38.6535 21.0257L37.9024 22.8793ZM34.6763 21.2651L33.6673 22.992L33.6675 22.9921L34.6763 21.2651ZM33.9179 20.8221L33.1963 18.9568L29.3244 20.4547L32.909 22.5489L33.9179 20.8221ZM34.7376 20.505L34.016 18.6397L34.016 18.6397L34.7376 20.505ZM8.74433 20.3645L7.77395 18.6157L7.77323 18.6161L8.74433 20.3645ZM8.15822 20.69L7.18712 18.9416L4.41674 20.4803L6.99782 22.319L8.15822 20.69ZM8.70399 21.0788L7.5436 22.7078L7.54399 22.708L8.70399 21.0788ZM15.4858 25.6629L16.3419 23.8554L16.3396 23.8543L15.4858 25.6629ZM15.8171 25.8373L16.7746 24.0814L16.7744 24.0813L15.8171 25.8373ZM19.3882 26.8705V28.8705H19.3884L19.3882 26.8705ZM24.2484 25.164L25.3726 26.8181L25.3729 26.818L24.2484 25.164ZM40.7936 18.4123L40.861 16.4134L40.8595 16.4134L40.7936 18.4123ZM42 18.453L41.9325 20.4519L47.6156 20.6436L43.3039 16.9365L42 18.453ZM41.0873 17.6683L42.3912 16.1518L42.3902 16.1509L41.0873 17.6683ZM31.0123 13.7106L31.5548 11.7856L31.5548 11.7856L31.0123 13.7106ZM30.9295 13.6873L31.4719 11.7622L31.0847 11.6531L30.6854 11.7022L30.9295 13.6873ZM30.844 13.6978L31.0875 15.6829L31.088 15.6828L30.844 13.6978ZM9.30756 20.0572L8.27421 18.3448L8.26761 18.3488L8.26104 18.3528L9.30756 20.0572ZM8.96839 20.2449L9.89429 22.0177L9.89459 22.0175L8.96839 20.2449ZM30.9057 13.21L31.1327 15.1971L31.1328 15.1971L30.9057 13.21ZM31.3801 13.1558L31.6072 15.1428L33.8389 14.8877L33.3276 12.7005L31.3801 13.1558ZM31.2719 12.6932L29.3243 13.148L29.3245 13.1485L31.2719 12.6932ZM28.8841 7.09028L30.5941 6.05311L30.5941 6.05307L28.8841 7.09028ZM25.325 2.89462L26.5928 1.34778L26.5928 1.34777L25.325 2.89462ZM19.6478 0.273808L19.9872 -1.69718L19.9866 -1.69728L19.6478 0.273808ZM8.53625 1.647L7.7219 -0.179702L7.72185 -0.17968L8.53625 1.647ZM8.37338 1.71961L7.55898 -0.107065L6.79343 0.234245L6.49996 1.01938L8.37338 1.71961ZM8.31118 1.88603L6.43776 1.18579L6.43764 1.18613L8.31118 1.88603ZM8.55879 7.16281L10.5158 6.75025L10.5156 6.74966L8.55879 7.16281ZM11.2573 17.9061L13.1856 17.3754L13.1856 17.3754L11.2573 17.9061ZM11.3899 18.3881L9.46165 18.9189L10.0855 21.1854L12.2228 20.2065L11.3899 18.3881ZM11.8464 18.1791L11.0136 16.3607L11.0135 16.3607L11.8464 18.1791ZM0.0254885 14.815L2.02198 14.6967L2.02198 14.6967L0.0254885 14.815ZM1.52041 20.8612L3.36368 20.0851L3.36319 20.0839L1.52041 20.8612ZM1.54265 20.914L-0.300618 21.6901L-0.194858 21.9413L-0.0257481 22.155L1.54265 20.914ZM1.57828 20.959L3.14817 19.7199L3.14668 19.718L1.57828 20.959ZM3.54055 21.6503V23.6503H3.54067L3.54055 21.6503ZM9.00148 19.663L7.97272 17.9478L7.96782 17.9508L9.00148 19.663ZM10.5886 18.7827L9.67839 17.0018L9.67833 17.0018L10.5886 18.7827ZM10.8962 18.6255L11.8064 20.4063L13.2576 19.6646L12.8242 18.0935L10.8962 18.6255ZM10.8047 18.2937L12.7327 17.7618L12.7326 17.7617L10.8047 18.2937ZM8.02348 7.24826L6.06637 7.66025L6.06646 7.66066L8.02348 7.24826ZM7.57499 2.85996L9.56961 3.00655L9.56961 3.0065L7.57499 2.85996ZM7.63376 2.06002L9.62838 2.20656L9.90513 -1.56046L6.63387 0.327901L7.63376 2.06002ZM6.93625 2.46266L5.93637 0.730543L5.93635 0.730556L6.93625 2.46266ZM0.720238 9.65157L-1.16564 8.98565L-1.16564 8.98565L0.720238 9.65157ZM41.5081 20.8875L42.0149 20.8807L41.9611 16.881L41.4543 16.8878L41.5081 20.8875ZM40.0136 18.5618L39.9332 19.0595L43.882 19.6976L43.9624 19.1999L40.0136 18.5618ZM39.9332 19.0592C39.8021 19.87 39.6066 20.4168 39.4167 20.7527L42.8994 22.7203C43.3941 21.8446 43.7029 20.8048 43.8819 19.6979L39.9332 19.0592ZM39.4168 20.7527C39.2558 21.0376 39.1353 21.1016 39.1241 21.1078C39.1037 21.119 39.0832 21.1249 39.0472 21.1249L39.0477 25.1249C40.2911 25.1248 41.8574 24.5644 42.8993 22.7204L39.4168 20.7527ZM39.0474 21.1249C39.0474 21.1249 39.0474 21.1249 39.0474 21.1249C39.0474 21.1249 39.0474 21.1249 39.0474 21.1249C39.0474 21.1249 39.0474 21.1249 39.0474 21.1249C39.0474 21.1249 39.0474 21.1249 39.0474 21.1249H39.0474H39.0474C39.0474 21.1249 39.0474 21.1249 39.0474 21.1249C39.0474 21.1249 39.0474 21.1249 39.0474 21.1249C39.0474 21.1249 39.0474 21.1249 39.0474 21.1249C39.0474 21.1249 39.0474 21.1249 39.0474 21.1249C39.0474 21.1249 39.0474 21.1249 39.0474 21.1249C39.0474 21.1249 39.0474 21.1249 39.0474 21.1249H39.0474H39.0474H39.0474C39.0474 21.1249 39.0474 21.1249 39.0474 21.1249C39.0474 21.1249 39.0474 21.1249 39.0474 21.1249C39.0474 21.1249 39.0474 21.1249 39.0474 21.1249C39.0474 21.1249 39.0474 21.1249 39.0474 21.1249C39.0474 21.1249 39.0474 21.1249 39.0474 21.1249C39.0474 21.1249 39.0474 21.1249 39.0474 21.1249C39.0474 21.1249 39.0474 21.1249 39.0474 21.1249C39.0474 21.1249 39.0474 21.1249 39.0474 21.1249H39.0474H39.0474H39.0473H39.0473H39.0473H39.0473H39.0473H39.0473H39.0473H39.0473H39.0473H39.0473H39.0473H39.0473H39.0473C39.0473 21.1249 39.0473 21.1249 39.0473 21.1249C39.0473 21.1249 39.0473 21.1249 39.0473 21.1249C39.0473 21.1249 39.0473 21.1249 39.0473 21.1249C39.0473 21.1249 39.0473 21.1249 39.0473 21.1249C39.0473 21.1249 39.0473 21.1249 39.0473 21.1249C39.0473 21.1249 39.0473 21.1249 39.0473 21.1249H39.0473H39.0473C39.0473 21.1249 39.0473 21.1249 39.0473 21.1249C39.0473 21.1249 39.0473 21.1249 39.0473 21.1249C39.0473 21.1249 39.0473 21.1249 39.0473 21.1249C39.0473 21.1249 39.0473 21.1249 39.0473 21.1249H39.0473C39.0472 21.1249 39.0472 21.1249 39.0472 21.1249C39.0472 21.1249 39.0472 21.1249 39.0472 21.1249C39.0472 21.1249 39.0472 21.1249 39.0472 21.1249H39.0472C39.0472 21.1249 39.0472 21.1249 39.0472 21.1249C39.0472 21.1249 39.0472 21.1249 39.0472 21.1249H39.0472C39.0472 21.1249 39.0472 21.1249 39.0472 21.1249C39.0472 21.1249 39.0472 21.1249 39.0472 21.1249H39.0472C39.0472 21.1249 39.0472 21.1249 39.0472 21.1249C39.0472 21.1249 39.0472 21.1249 39.0472 21.1249C39.0472 21.1249 39.0472 21.1249 39.0472 21.1249C39.0472 21.1249 39.0472 21.1249 39.0472 21.1249H39.0472C39.0472 21.1249 39.0472 21.1249 39.0472 21.1249H39.0472C39.0472 21.1249 39.0472 21.1249 39.0472 21.1249H39.0472C39.0472 21.1249 39.0472 21.1249 39.0472 21.1249H39.0472C39.0472 21.1249 39.0472 21.1249 39.0472 21.1249C39.0472 21.1249 39.0472 21.1249 39.0472 21.1249C39.0472 21.1249 39.0472 21.1249 39.0472 21.1249C39.0472 21.1249 39.0472 21.1249 39.0472 21.1249H39.0472C39.0472 21.1249 39.0472 21.1249 39.0471 21.1249C39.0471 21.1249 39.0471 21.1249 39.0471 21.1249H39.0471C39.0471 21.1249 39.0471 21.1249 39.0471 21.1249C39.0471 21.1249 39.0471 21.1249 39.0471 21.1249H39.0471C39.0471 21.1249 39.0471 21.1249 39.0471 21.1249C39.0471 21.1249 39.0471 21.1249 39.0471 21.1249C39.0471 21.1249 39.0471 21.1249 39.0471 21.1249H39.0471H39.0471C39.0471 21.1249 39.0471 21.1249 39.0471 21.1249C39.0471 21.1249 39.0471 21.1249 39.0471 21.1249C39.0471 21.1249 39.0471 21.1249 39.0471 21.1249C39.0471 21.1249 39.0471 21.1249 39.0471 21.1249H39.0471H39.0471H39.0471C39.0471 21.1249 39.0471 21.1249 39.0471 21.1249C39.0471 21.1249 39.0471 21.1249 39.0471 21.1249C39.0471 21.1249 39.0471 21.1249 39.0471 21.1249C39.0471 21.1249 39.0471 21.1249 39.0471 21.1249C39.0471 21.1249 39.0471 21.1249 39.0471 21.1249C39.0471 21.1249 39.0471 21.1249 39.0471 21.1249C39.0471 21.1249 39.0471 21.1249 39.0471 21.1249C39.0471 21.1249 39.0471 21.1249 39.0471 21.1249C39.0471 21.1249 39.0471 21.1249 39.0471 21.1249C39.0471 21.1249 39.0471 21.1249 39.047 21.1249H39.047H39.047H39.047C39.047 21.1249 39.047 21.1249 39.047 21.1249C39.047 21.1249 39.047 21.1249 39.047 21.1249V25.1249C39.047 25.1249 39.047 25.1249 39.047 25.1249C39.047 25.1249 39.047 25.1249 39.047 25.1249H39.047H39.047H39.047C39.0471 25.1249 39.0471 25.1249 39.0471 25.1249C39.0471 25.1249 39.0471 25.1249 39.0471 25.1249C39.0471 25.1249 39.0471 25.1249 39.0471 25.1249C39.0471 25.1249 39.0471 25.1249 39.0471 25.1249C39.0471 25.1249 39.0471 25.1249 39.0471 25.1249C39.0471 25.1249 39.0471 25.1249 39.0471 25.1249C39.0471 25.1249 39.0471 25.1249 39.0471 25.1249C39.0471 25.1249 39.0471 25.1249 39.0471 25.1249C39.0471 25.1249 39.0471 25.1249 39.0471 25.1249C39.0471 25.1249 39.0471 25.1249 39.0471 25.1249H39.0471H39.0471H39.0471C39.0471 25.1249 39.0471 25.1249 39.0471 25.1249C39.0471 25.1249 39.0471 25.1249 39.0471 25.1249C39.0471 25.1249 39.0471 25.1249 39.0471 25.1249C39.0471 25.1249 39.0471 25.1249 39.0471 25.1249H39.0471H39.0471C39.0471 25.1249 39.0471 25.1249 39.0471 25.1249C39.0471 25.1249 39.0471 25.1249 39.0471 25.1249C39.0471 25.1249 39.0471 25.1249 39.0471 25.1249H39.0471C39.0471 25.1249 39.0471 25.1249 39.0471 25.1249C39.0471 25.1249 39.0471 25.1249 39.0471 25.1249H39.0471C39.0471 25.1249 39.0471 25.1249 39.0471 25.1249C39.0472 25.1249 39.0472 25.1249 39.0472 25.1249H39.0472C39.0472 25.1249 39.0472 25.1249 39.0472 25.1249C39.0472 25.1249 39.0472 25.1249 39.0472 25.1249C39.0472 25.1249 39.0472 25.1249 39.0472 25.1249C39.0472 25.1249 39.0472 25.1249 39.0472 25.1249H39.0472C39.0472 25.1249 39.0472 25.1249 39.0472 25.1249H39.0472C39.0472 25.1249 39.0472 25.1249 39.0472 25.1249H39.0472C39.0472 25.1249 39.0472 25.1249 39.0472 25.1249H39.0472C39.0472 25.1249 39.0472 25.1249 39.0472 25.1249C39.0472 25.1249 39.0472 25.1249 39.0472 25.1249C39.0472 25.1249 39.0472 25.1249 39.0472 25.1249C39.0472 25.1249 39.0472 25.1249 39.0472 25.1249H39.0472C39.0472 25.1249 39.0472 25.1249 39.0472 25.1249C39.0472 25.1249 39.0472 25.1249 39.0472 25.1249H39.0472C39.0472 25.1249 39.0472 25.1249 39.0472 25.1249C39.0472 25.1249 39.0472 25.1249 39.0472 25.1249H39.0472C39.0472 25.1249 39.0472 25.1249 39.0472 25.1249C39.0472 25.1249 39.0472 25.1249 39.0472 25.1249C39.0472 25.1249 39.0472 25.1249 39.0473 25.1249H39.0473C39.0473 25.1249 39.0473 25.1249 39.0473 25.1249C39.0473 25.1249 39.0473 25.1249 39.0473 25.1249C39.0473 25.1249 39.0473 25.1249 39.0473 25.1249C39.0473 25.1249 39.0473 25.1249 39.0473 25.1249H39.0473H39.0473C39.0473 25.1249 39.0473 25.1249 39.0473 25.1249C39.0473 25.1249 39.0473 25.1249 39.0473 25.1249C39.0473 25.1249 39.0473 25.1249 39.0473 25.1249C39.0473 25.1249 39.0473 25.1249 39.0473 25.1249C39.0473 25.1249 39.0473 25.1249 39.0473 25.1249C39.0473 25.1249 39.0473 25.1249 39.0473 25.1249H39.0473H39.0473H39.0473H39.0473H39.0473H39.0473H39.0473H39.0473H39.0473H39.0473H39.0473H39.0473H39.0474H39.0474H39.0474C39.0474 25.1249 39.0474 25.1249 39.0474 25.1249C39.0474 25.1249 39.0474 25.1249 39.0474 25.1249C39.0474 25.1249 39.0474 25.1249 39.0474 25.1249C39.0474 25.1249 39.0474 25.1249 39.0474 25.1249C39.0474 25.1249 39.0474 25.1249 39.0474 25.1249C39.0474 25.1249 39.0474 25.1249 39.0474 25.1249C39.0474 25.1249 39.0474 25.1249 39.0474 25.1249C39.0474 25.1249 39.0474 25.1249 39.0474 25.1249H39.0474H39.0474H39.0474C39.0474 25.1249 39.0474 25.1249 39.0474 25.1249C39.0474 25.1249 39.0474 25.1249 39.0474 25.1249C39.0474 25.1249 39.0474 25.1249 39.0474 25.1249C39.0474 25.1249 39.0474 25.1249 39.0474 25.1249C39.0474 25.1249 39.0474 25.1249 39.0474 25.1249C39.0474 25.1249 39.0474 25.1249 39.0474 25.1249H39.0474H39.0474C39.0474 25.1249 39.0474 25.1249 39.0474 25.1249C39.0474 25.1249 39.0474 25.1249 39.0474 25.1249C39.0474 25.1249 39.0474 25.1249 39.0474 25.1249C39.0474 25.1249 39.0474 25.1249 39.0474 25.1249V21.1249ZM39.047 21.1249C38.9937 21.1249 38.8651 21.1118 38.656 21.0267L37.1488 24.7319C37.7406 24.9727 38.3826 25.1249 39.047 25.1249V21.1249ZM38.6535 21.0257C37.7428 20.6567 36.7741 20.1743 35.685 19.5382L33.6675 22.9921C34.8876 23.7048 36.0295 24.2784 37.1514 24.733L38.6535 21.0257ZM35.6852 19.5383L34.9268 19.0952L32.909 22.5489L33.6673 22.992L35.6852 19.5383ZM34.6395 22.6874L35.4592 22.3703L34.016 18.6397L33.1963 18.9568L34.6395 22.6874ZM35.4592 22.3703C39.0318 20.9882 41.1236 20.8926 41.508 20.8875L41.4544 16.8878C40.5931 16.8994 38.0309 17.0865 34.016 18.6397L35.4592 22.3703ZM7.77323 18.6161L7.18712 18.9416L9.12932 22.4384L9.71543 22.1129L7.77323 18.6161ZM6.99782 22.319L7.5436 22.7078L9.86439 19.4499L9.31862 19.0611L6.99782 22.319ZM7.54399 22.708C7.57498 22.7301 9.02473 23.7622 10.5968 24.8506C11.3819 25.3942 12.2058 25.9576 12.9021 26.4181C13.5391 26.8394 14.2195 27.2768 14.6321 27.4715L16.3396 23.8543C16.3468 23.8577 16.3181 23.844 16.2394 23.7988C16.167 23.7572 16.0736 23.7012 15.9586 23.6299C15.7286 23.4873 15.4401 23.301 15.1087 23.0818C14.4471 22.6443 13.6499 22.0993 12.8738 21.5619C11.3235 20.4885 9.89054 19.4685 9.86399 19.4496L7.54399 22.708ZM14.6298 27.4704C14.6296 27.4704 14.6351 27.473 14.6476 27.4793C14.6599 27.4856 14.676 27.494 14.697 27.5052C14.7411 27.5286 14.7918 27.5562 14.8598 27.5933L16.7744 24.0813C16.6645 24.0213 16.4931 23.927 16.3419 23.8554L14.6298 27.4704ZM14.8596 27.5932C15.6068 28.0006 17.1737 28.8705 19.3876 28.8705V24.8705C18.2497 24.8705 17.4447 24.4468 16.7746 24.0814L14.8596 27.5932ZM19.3876 28.8705C19.3876 28.8705 19.3876 28.8705 19.3876 28.8705C19.3876 28.8705 19.3876 28.8705 19.3876 28.8705C19.3876 28.8705 19.3876 28.8705 19.3876 28.8705C19.3876 28.8705 19.3876 28.8705 19.3876 28.8705H19.3877C19.3877 28.8705 19.3877 28.8705 19.3877 28.8705H19.3877C19.3877 28.8705 19.3877 28.8705 19.3877 28.8705H19.3877C19.3877 28.8705 19.3877 28.8705 19.3877 28.8705C19.3877 28.8705 19.3877 28.8705 19.3877 28.8705C19.3877 28.8705 19.3877 28.8705 19.3877 28.8705C19.3877 28.8705 19.3877 28.8705 19.3877 28.8705H19.3877C19.3877 28.8705 19.3877 28.8705 19.3877 28.8705H19.3877C19.3877 28.8705 19.3877 28.8705 19.3877 28.8705H19.3877C19.3877 28.8705 19.3877 28.8705 19.3877 28.8705C19.3877 28.8705 19.3877 28.8705 19.3877 28.8705H19.3877C19.3877 28.8705 19.3877 28.8705 19.3877 28.8705H19.3877C19.3877 28.8705 19.3877 28.8705 19.3877 28.8705C19.3877 28.8705 19.3877 28.8705 19.3877 28.8705C19.3877 28.8705 19.3877 28.8705 19.3877 28.8705C19.3877 28.8705 19.3877 28.8705 19.3877 28.8705H19.3877C19.3877 28.8705 19.3877 28.8705 19.3877 28.8705H19.3877C19.3877 28.8705 19.3877 28.8705 19.3877 28.8705C19.3877 28.8705 19.3877 28.8705 19.3877 28.8705H19.3877C19.3877 28.8705 19.3877 28.8705 19.3877 28.8705H19.3877C19.3877 28.8705 19.3877 28.8705 19.3877 28.8705C19.3877 28.8705 19.3877 28.8705 19.3877 28.8705H19.3877C19.3877 28.8705 19.3877 28.8705 19.3877 28.8705H19.3877C19.3877 28.8705 19.3877 28.8705 19.3877 28.8705C19.3877 28.8705 19.3877 28.8705 19.3877 28.8705H19.3877C19.3877 28.8705 19.3877 28.8705 19.3877 28.8705H19.3877C19.3877 28.8705 19.3877 28.8705 19.3877 28.8705C19.3877 28.8705 19.3877 28.8705 19.3877 28.8705H19.3877C19.3877 28.8705 19.3877 28.8705 19.3877 28.8705C19.3877 28.8705 19.3877 28.8705 19.3877 28.8705C19.3877 28.8705 19.3877 28.8705 19.3877 28.8705C19.3877 28.8705 19.3877 28.8705 19.3877 28.8705H19.3877C19.3877 28.8705 19.3877 28.8705 19.3877 28.8705C19.3877 28.8705 19.3877 28.8705 19.3877 28.8705H19.3877C19.3878 28.8705 19.3878 28.8705 19.3878 28.8705C19.3878 28.8705 19.3878 28.8705 19.3878 28.8705C19.3878 28.8705 19.3878 28.8705 19.3878 28.8705C19.3878 28.8705 19.3878 28.8705 19.3878 28.8705H19.3878C19.3878 28.8705 19.3878 28.8705 19.3878 28.8705C19.3878 28.8705 19.3878 28.8705 19.3878 28.8705H19.3878C19.3878 28.8705 19.3878 28.8705 19.3878 28.8705C19.3878 28.8705 19.3878 28.8705 19.3878 28.8705H19.3878C19.3878 28.8705 19.3878 28.8705 19.3878 28.8705C19.3878 28.8705 19.3878 28.8705 19.3878 28.8705H19.3878C19.3878 28.8705 19.3878 28.8705 19.3878 28.8705C19.3878 28.8705 19.3878 28.8705 19.3878 28.8705C19.3878 28.8705 19.3878 28.8705 19.3878 28.8705C19.3878 28.8705 19.3878 28.8705 19.3878 28.8705H19.3878C19.3878 28.8705 19.3878 28.8705 19.3878 28.8705C19.3878 28.8705 19.3878 28.8705 19.3878 28.8705H19.3878C19.3878 28.8705 19.3878 28.8705 19.3878 28.8705C19.3878 28.8705 19.3878 28.8705 19.3878 28.8705H19.3878C19.3878 28.8705 19.3878 28.8705 19.3878 28.8705C19.3878 28.8705 19.3878 28.8705 19.3878 28.8705H19.3878C19.3878 28.8705 19.3878 28.8705 19.3878 28.8705C19.3878 28.8705 19.3878 28.8705 19.3878 28.8705H19.3878C19.3878 28.8705 19.3878 28.8705 19.3878 28.8705C19.3878 28.8705 19.3878 28.8705 19.3878 28.8705H19.3878C19.3878 28.8705 19.3878 28.8705 19.3878 28.8705C19.3878 28.8705 19.3878 28.8705 19.3878 28.8705H19.3878C19.3878 28.8705 19.3878 28.8705 19.3878 28.8705C19.3878 28.8705 19.3878 28.8705 19.3878 28.8705H19.3878C19.3878 28.8705 19.3878 28.8705 19.3878 28.8705C19.3878 28.8705 19.3878 28.8705 19.3878 28.8705H19.3878C19.3878 28.8705 19.3878 28.8705 19.3878 28.8705C19.3878 28.8705 19.3878 28.8705 19.3878 28.8705C19.3878 28.8705 19.3878 28.8705 19.3878 28.8705H19.3878C19.3878 28.8705 19.3878 28.8705 19.3878 28.8705C19.3878 28.8705 19.3878 28.8705 19.3878 28.8705H19.3878C19.3878 28.8705 19.3878 28.8705 19.3878 28.8705C19.3878 28.8705 19.3878 28.8705 19.3878 28.8705H19.3878C19.3879 28.8705 19.3879 28.8705 19.3879 28.8705C19.3879 28.8705 19.3879 28.8705 19.3879 28.8705H19.3879C19.3879 28.8705 19.3879 28.8705 19.3879 28.8705C19.3879 28.8705 19.3879 28.8705 19.3879 28.8705H19.3879C19.3879 28.8705 19.3879 28.8705 19.3879 28.8705C19.3879 28.8705 19.3879 28.8705 19.3879 28.8705C19.3879 28.8705 19.3879 28.8705 19.3879 28.8705H19.3879C19.3879 28.8705 19.3879 28.8705 19.3879 28.8705C19.3879 28.8705 19.3879 28.8705 19.3879 28.8705H19.3879C19.3879 28.8705 19.3879 28.8705 19.3879 28.8705C19.3879 28.8705 19.3879 28.8705 19.3879 28.8705H19.3879C19.3879 28.8705 19.3879 28.8705 19.3879 28.8705C19.3879 28.8705 19.3879 28.8705 19.3879 28.8705C19.3879 28.8705 19.3879 28.8705 19.3879 28.8705H19.3879C19.3879 28.8705 19.3879 28.8705 19.3879 28.8705C19.3879 28.8705 19.3879 28.8705 19.3879 28.8705H19.3879C19.3879 28.8705 19.3879 28.8705 19.3879 28.8705C19.3879 28.8705 19.3879 28.8705 19.3879 28.8705H19.3879C19.3879 28.8705 19.3879 28.8705 19.3879 28.8705C19.3879 28.8705 19.3879 28.8705 19.3879 28.8705C19.3879 28.8705 19.3879 28.8705 19.3879 28.8705H19.3879C19.3879 28.8705 19.3879 28.8705 19.3879 28.8705C19.3879 28.8705 19.3879 28.8705 19.3879 28.8705H19.3879C19.3879 28.8705 19.3879 28.8705 19.3879 28.8705C19.3879 28.8705 19.3879 28.8705 19.3879 28.8705H19.3879C19.3879 28.8705 19.3879 28.8705 19.3879 28.8705C19.3879 28.8705 19.3879 28.8705 19.3879 28.8705C19.3879 28.8705 19.3879 28.8705 19.3879 28.8705H19.3879C19.3879 28.8705 19.3879 28.8705 19.3879 28.8705C19.3879 28.8705 19.3879 28.8705 19.3879 28.8705H19.3879C19.3879 28.8705 19.3879 28.8705 19.3879 28.8705C19.3879 28.8705 19.3879 28.8705 19.3879 28.8705C19.3879 28.8705 19.3879 28.8705 19.3879 28.8705H19.3879C19.3879 28.8705 19.3879 28.8705 19.3879 28.8705C19.3879 28.8705 19.3879 28.8705 19.3879 28.8705H19.3879C19.3879 28.8705 19.3879 28.8705 19.3879 28.8705C19.3879 28.8705 19.3879 28.8705 19.3879 28.8705H19.388C19.388 28.8705 19.388 28.8705 19.388 28.8705C19.388 28.8705 19.388 28.8705 19.388 28.8705C19.388 28.8705 19.388 28.8705 19.388 28.8705H19.388C19.388 28.8705 19.388 28.8705 19.388 28.8705C19.388 28.8705 19.388 28.8705 19.388 28.8705H19.388C19.388 28.8705 19.388 28.8705 19.388 28.8705C19.388 28.8705 19.388 28.8705 19.388 28.8705H19.388H19.388C19.388 28.8705 19.388 28.8705 19.388 28.8705C19.388 28.8705 19.388 28.8705 19.388 28.8705H19.388C19.388 28.8705 19.388 28.8705 19.388 28.8705C19.388 28.8705 19.388 28.8705 19.388 28.8705H19.388C19.388 28.8705 19.388 28.8705 19.388 28.8705C19.388 28.8705 19.388 28.8705 19.388 28.8705C19.388 28.8705 19.388 28.8705 19.388 28.8705H19.388C19.388 28.8705 19.388 28.8705 19.388 28.8705C19.388 28.8705 19.388 28.8705 19.388 28.8705H19.388C19.388 28.8705 19.388 28.8705 19.388 28.8705C19.388 28.8705 19.388 28.8705 19.388 28.8705H19.388C19.388 28.8705 19.388 28.8705 19.388 28.8705C19.388 28.8705 19.388 28.8705 19.388 28.8705H19.388H19.388C19.388 28.8705 19.388 28.8705 19.388 28.8705C19.388 28.8705 19.388 28.8705 19.388 28.8705H19.388C19.388 28.8705 19.388 28.8705 19.388 28.8705C19.388 28.8705 19.388 28.8705 19.388 28.8705H19.388C19.388 28.8705 19.388 28.8705 19.388 28.8705C19.388 28.8705 19.388 28.8705 19.388 28.8705H19.388C19.388 28.8705 19.388 28.8705 19.388 28.8705C19.388 28.8705 19.388 28.8705 19.388 28.8705H19.388C19.388 28.8705 19.388 28.8705 19.388 28.8705C19.388 28.8705 19.388 28.8705 19.388 28.8705C19.388 28.8705 19.388 28.8705 19.388 28.8705H19.388C19.388 28.8705 19.388 28.8705 19.388 28.8705C19.388 28.8705 19.388 28.8705 19.388 28.8705H19.388C19.388 28.8705 19.388 28.8705 19.388 28.8705C19.388 28.8705 19.388 28.8705 19.3881 28.8705H19.3881C19.3881 28.8705 19.3881 28.8705 19.3881 28.8705C19.3881 28.8705 19.3881 28.8705 19.3881 28.8705H19.3881C19.3881 28.8705 19.3881 28.8705 19.3881 28.8705C19.3881 28.8705 19.3881 28.8705 19.3881 28.8705H19.3881C19.3881 28.8705 19.3881 28.8705 19.3881 28.8705C19.3881 28.8705 19.3881 28.8705 19.3881 28.8705H19.3881C19.3881 28.8705 19.3881 28.8705 19.3881 28.8705C19.3881 28.8705 19.3881 28.8705 19.3881 28.8705H19.3881C19.3881 28.8705 19.3881 28.8705 19.3881 28.8705C19.3881 28.8705 19.3881 28.8705 19.3881 28.8705H19.3881C19.3881 28.8705 19.3881 28.8705 19.3881 28.8705C19.3881 28.8705 19.3881 28.8705 19.3881 28.8705H19.3881C19.3881 28.8705 19.3881 28.8705 19.3881 28.8705C19.3881 28.8705 19.3881 28.8705 19.3881 28.8705H19.3881C19.3881 28.8705 19.3881 28.8705 19.3881 28.8705C19.3881 28.8705 19.3881 28.8705 19.3881 28.8705H19.3881C19.3881 28.8705 19.3881 28.8705 19.3881 28.8705C19.3881 28.8705 19.3881 28.8705 19.3881 28.8705H19.3881C19.3881 28.8705 19.3881 28.8705 19.3881 28.8705H19.3881C19.3881 28.8705 19.3881 28.8705 19.3881 28.8705C19.3881 28.8705 19.3881 28.8705 19.3881 28.8705H19.3881C19.3881 28.8705 19.3881 28.8705 19.3881 28.8705C19.3881 28.8705 19.3881 28.8705 19.3881 28.8705H19.3881C19.3881 28.8705 19.3881 28.8705 19.3881 28.8705C19.3881 28.8705 19.3881 28.8705 19.3881 28.8705H19.3881C19.3881 28.8705 19.3881 28.8705 19.3881 28.8705C19.3881 28.8705 19.3881 28.8705 19.3881 28.8705C19.3881 28.8705 19.3881 28.8705 19.3881 28.8705C19.3881 28.8705 19.3881 28.8705 19.3881 28.8705H19.3881C19.3881 28.8705 19.3881 28.8705 19.3881 28.8705C19.3881 28.8705 19.3881 28.8705 19.3881 28.8705H19.3881C19.3881 28.8705 19.3881 28.8705 19.3881 28.8705H19.3881C19.3881 28.8705 19.3881 28.8705 19.3881 28.8705C19.3881 28.8705 19.3881 28.8705 19.3881 28.8705H19.3881C19.3882 28.8705 19.3882 28.8705 19.3882 28.8705C19.3882 28.8705 19.3882 28.8705 19.3882 28.8705H19.3882C19.3882 28.8705 19.3882 28.8705 19.3882 28.8705H19.3882C19.3882 28.8705 19.3882 28.8705 19.3882 28.8705C19.3882 28.8705 19.3882 28.8705 19.3882 28.8705H19.3882C19.3882 28.8705 19.3882 28.8705 19.3882 28.8705H19.3882C19.3882 28.8705 19.3882 28.8705 19.3882 28.8705C19.3882 28.8705 19.3882 28.8705 19.3882 28.8705H19.3882C19.3882 28.8705 19.3882 28.8705 19.3882 28.8705H19.3882C19.3882 28.8705 19.3882 28.8705 19.3882 28.8705C19.3882 28.8705 19.3882 28.8705 19.3882 28.8705C19.3882 28.8705 19.3882 28.8705 19.3882 28.8705C19.3882 28.8705 19.3882 28.8705 19.3882 28.8705H19.3882C19.3882 28.8705 19.3882 28.8705 19.3882 28.8705H19.3882C19.3882 28.8705 19.3882 28.8705 19.3882 28.8705C19.3882 28.8705 19.3882 28.8705 19.3882 28.8705H19.3882C19.3882 28.8705 19.3882 28.8705 19.3882 28.8705H19.3882C19.3882 28.8705 19.3882 28.8705 19.3882 28.8705H19.3882C19.3882 28.8705 19.3882 28.8705 19.3882 28.8705C19.3882 28.8705 19.3882 28.8705 19.3882 28.8705C19.3882 28.8705 19.3882 28.8705 19.3882 28.8705C19.3882 28.8705 19.3882 28.8705 19.3882 28.8705H19.3882C19.3882 28.8705 19.3882 28.8705 19.3882 28.8705H19.3882C19.3882 28.8705 19.3882 28.8705 19.3882 28.8705H19.3882C19.3882 28.8705 19.3882 28.8705 19.3882 28.8705C19.3882 28.8705 19.3882 28.8705 19.3882 28.8705C19.3882 28.8705 19.3882 28.8705 19.3882 28.8705C19.3882 28.8705 19.3882 28.8705 19.3882 28.8705H19.3882C19.3882 28.8705 19.3882 28.8705 19.3882 28.8705H19.3882V24.8705H19.3882C19.3882 24.8705 19.3882 24.8705 19.3882 24.8705H19.3882C19.3882 24.8705 19.3882 24.8705 19.3882 24.8705C19.3882 24.8705 19.3882 24.8705 19.3882 24.8705C19.3882 24.8705 19.3882 24.8705 19.3882 24.8705C19.3882 24.8705 19.3882 24.8705 19.3882 24.8705H19.3882C19.3882 24.8705 19.3882 24.8705 19.3882 24.8705H19.3882C19.3882 24.8705 19.3882 24.8705 19.3882 24.8705H19.3882C19.3882 24.8705 19.3882 24.8705 19.3882 24.8705C19.3882 24.8705 19.3882 24.8705 19.3882 24.8705C19.3882 24.8705 19.3882 24.8705 19.3882 24.8705C19.3882 24.8705 19.3882 24.8705 19.3882 24.8705H19.3882C19.3882 24.8705 19.3882 24.8705 19.3882 24.8705H19.3882C19.3882 24.8705 19.3882 24.8705 19.3882 24.8705H19.3882C19.3882 24.8705 19.3882 24.8705 19.3882 24.8705C19.3882 24.8705 19.3882 24.8705 19.3882 24.8705H19.3882C19.3882 24.8705 19.3882 24.8705 19.3882 24.8705H19.3882C19.3882 24.8705 19.3882 24.8705 19.3882 24.8705C19.3882 24.8705 19.3882 24.8705 19.3882 24.8705C19.3882 24.8705 19.3882 24.8705 19.3882 24.8705C19.3882 24.8705 19.3882 24.8705 19.3882 24.8705H19.3882C19.3882 24.8705 19.3882 24.8705 19.3882 24.8705H19.3882C19.3882 24.8705 19.3882 24.8705 19.3882 24.8705C19.3882 24.8705 19.3882 24.8705 19.3882 24.8705H19.3882C19.3882 24.8705 19.3882 24.8705 19.3882 24.8705H19.3882C19.3882 24.8705 19.3882 24.8705 19.3882 24.8705C19.3882 24.8705 19.3882 24.8705 19.3882 24.8705H19.3882C19.3882 24.8705 19.3882 24.8705 19.3882 24.8705H19.3882C19.3882 24.8705 19.3882 24.8705 19.3882 24.8705C19.3882 24.8705 19.3882 24.8705 19.3881 24.8705H19.3881C19.3881 24.8705 19.3881 24.8705 19.3881 24.8705C19.3881 24.8705 19.3881 24.8705 19.3881 24.8705H19.3881C19.3881 24.8705 19.3881 24.8705 19.3881 24.8705H19.3881C19.3881 24.8705 19.3881 24.8705 19.3881 24.8705C19.3881 24.8705 19.3881 24.8705 19.3881 24.8705H19.3881C19.3881 24.8705 19.3881 24.8705 19.3881 24.8705C19.3881 24.8705 19.3881 24.8705 19.3881 24.8705C19.3881 24.8705 19.3881 24.8705 19.3881 24.8705C19.3881 24.8705 19.3881 24.8705 19.3881 24.8705H19.3881C19.3881 24.8705 19.3881 24.8705 19.3881 24.8705C19.3881 24.8705 19.3881 24.8705 19.3881 24.8705H19.3881C19.3881 24.8705 19.3881 24.8705 19.3881 24.8705C19.3881 24.8705 19.3881 24.8705 19.3881 24.8705H19.3881C19.3881 24.8705 19.3881 24.8705 19.3881 24.8705C19.3881 24.8705 19.3881 24.8705 19.3881 24.8705H19.3881C19.3881 24.8705 19.3881 24.8705 19.3881 24.8705H19.3881C19.3881 24.8705 19.3881 24.8705 19.3881 24.8705C19.3881 24.8705 19.3881 24.8705 19.3881 24.8705H19.3881C19.3881 24.8705 19.3881 24.8705 19.3881 24.8705C19.3881 24.8705 19.3881 24.8705 19.3881 24.8705H19.3881C19.3881 24.8705 19.3881 24.8705 19.3881 24.8705C19.3881 24.8705 19.3881 24.8705 19.3881 24.8705H19.3881C19.3881 24.8705 19.3881 24.8705 19.3881 24.8705C19.3881 24.8705 19.3881 24.8705 19.3881 24.8705H19.3881C19.3881 24.8705 19.3881 24.8705 19.3881 24.8705C19.3881 24.8705 19.3881 24.8705 19.3881 24.8705H19.3881C19.3881 24.8705 19.3881 24.8705 19.3881 24.8705C19.3881 24.8705 19.3881 24.8705 19.3881 24.8705H19.3881C19.3881 24.8705 19.3881 24.8705 19.3881 24.8705C19.3881 24.8705 19.3881 24.8705 19.3881 24.8705H19.3881C19.3881 24.8705 19.3881 24.8705 19.3881 24.8705C19.3881 24.8705 19.3881 24.8705 19.3881 24.8705H19.3881C19.3881 24.8705 19.3881 24.8705 19.3881 24.8705C19.3881 24.8705 19.3881 24.8705 19.3881 24.8705H19.3881C19.388 24.8705 19.388 24.8705 19.388 24.8705C19.388 24.8705 19.388 24.8705 19.388 24.8705H19.388C19.388 24.8705 19.388 24.8705 19.388 24.8705C19.388 24.8705 19.388 24.8705 19.388 24.8705H19.388C19.388 24.8705 19.388 24.8705 19.388 24.8705C19.388 24.8705 19.388 24.8705 19.388 24.8705C19.388 24.8705 19.388 24.8705 19.388 24.8705H19.388C19.388 24.8705 19.388 24.8705 19.388 24.8705C19.388 24.8705 19.388 24.8705 19.388 24.8705H19.388C19.388 24.8705 19.388 24.8705 19.388 24.8705C19.388 24.8705 19.388 24.8705 19.388 24.8705H19.388C19.388 24.8705 19.388 24.8705 19.388 24.8705C19.388 24.8705 19.388 24.8705 19.388 24.8705H19.388C19.388 24.8705 19.388 24.8705 19.388 24.8705C19.388 24.8705 19.388 24.8705 19.388 24.8705H19.388H19.388C19.388 24.8705 19.388 24.8705 19.388 24.8705C19.388 24.8705 19.388 24.8705 19.388 24.8705H19.388C19.388 24.8705 19.388 24.8705 19.388 24.8705C19.388 24.8705 19.388 24.8705 19.388 24.8705H19.388C19.388 24.8705 19.388 24.8705 19.388 24.8705C19.388 24.8705 19.388 24.8705 19.388 24.8705H19.388C19.388 24.8705 19.388 24.8705 19.388 24.8705C19.388 24.8705 19.388 24.8705 19.388 24.8705C19.388 24.8705 19.388 24.8705 19.388 24.8705H19.388C19.388 24.8705 19.388 24.8705 19.388 24.8705C19.388 24.8705 19.388 24.8705 19.388 24.8705H19.388C19.388 24.8705 19.388 24.8705 19.388 24.8705C19.388 24.8705 19.388 24.8705 19.388 24.8705H19.388H19.388C19.388 24.8705 19.388 24.8705 19.388 24.8705C19.388 24.8705 19.388 24.8705 19.388 24.8705H19.388C19.388 24.8705 19.388 24.8705 19.388 24.8705C19.388 24.8705 19.388 24.8705 19.388 24.8705H19.388C19.388 24.8705 19.388 24.8705 19.388 24.8705C19.388 24.8705 19.388 24.8705 19.388 24.8705C19.388 24.8705 19.388 24.8705 19.388 24.8705H19.3879C19.3879 24.8705 19.3879 24.8705 19.3879 24.8705C19.3879 24.8705 19.3879 24.8705 19.3879 24.8705H19.3879C19.3879 24.8705 19.3879 24.8705 19.3879 24.8705C19.3879 24.8705 19.3879 24.8705 19.3879 24.8705H19.3879C19.3879 24.8705 19.3879 24.8705 19.3879 24.8705C19.3879 24.8705 19.3879 24.8705 19.3879 24.8705C19.3879 24.8705 19.3879 24.8705 19.3879 24.8705H19.3879C19.3879 24.8705 19.3879 24.8705 19.3879 24.8705C19.3879 24.8705 19.3879 24.8705 19.3879 24.8705H19.3879C19.3879 24.8705 19.3879 24.8705 19.3879 24.8705C19.3879 24.8705 19.3879 24.8705 19.3879 24.8705C19.3879 24.8705 19.3879 24.8705 19.3879 24.8705H19.3879C19.3879 24.8705 19.3879 24.8705 19.3879 24.8705C19.3879 24.8705 19.3879 24.8705 19.3879 24.8705H19.3879C19.3879 24.8705 19.3879 24.8705 19.3879 24.8705C19.3879 24.8705 19.3879 24.8705 19.3879 24.8705H19.3879C19.3879 24.8705 19.3879 24.8705 19.3879 24.8705C19.3879 24.8705 19.3879 24.8705 19.3879 24.8705C19.3879 24.8705 19.3879 24.8705 19.3879 24.8705H19.3879C19.3879 24.8705 19.3879 24.8705 19.3879 24.8705C19.3879 24.8705 19.3879 24.8705 19.3879 24.8705H19.3879C19.3879 24.8705 19.3879 24.8705 19.3879 24.8705C19.3879 24.8705 19.3879 24.8705 19.3879 24.8705H19.3879C19.3879 24.8705 19.3879 24.8705 19.3879 24.8705C19.3879 24.8705 19.3879 24.8705 19.3879 24.8705C19.3879 24.8705 19.3879 24.8705 19.3879 24.8705H19.3879C19.3879 24.8705 19.3879 24.8705 19.3879 24.8705C19.3879 24.8705 19.3879 24.8705 19.3879 24.8705H19.3879C19.3879 24.8705 19.3879 24.8705 19.3879 24.8705C19.3879 24.8705 19.3879 24.8705 19.3879 24.8705H19.3879C19.3879 24.8705 19.3879 24.8705 19.3879 24.8705C19.3879 24.8705 19.3879 24.8705 19.3879 24.8705C19.3879 24.8705 19.3879 24.8705 19.3879 24.8705H19.3879C19.3879 24.8705 19.3879 24.8705 19.3879 24.8705C19.3879 24.8705 19.3879 24.8705 19.3879 24.8705H19.3879C19.3879 24.8705 19.3879 24.8705 19.3879 24.8705C19.3879 24.8705 19.3879 24.8705 19.3878 24.8705H19.3878C19.3878 24.8705 19.3878 24.8705 19.3878 24.8705C19.3878 24.8705 19.3878 24.8705 19.3878 24.8705H19.3878C19.3878 24.8705 19.3878 24.8705 19.3878 24.8705C19.3878 24.8705 19.3878 24.8705 19.3878 24.8705H19.3878C19.3878 24.8705 19.3878 24.8705 19.3878 24.8705C19.3878 24.8705 19.3878 24.8705 19.3878 24.8705C19.3878 24.8705 19.3878 24.8705 19.3878 24.8705H19.3878C19.3878 24.8705 19.3878 24.8705 19.3878 24.8705C19.3878 24.8705 19.3878 24.8705 19.3878 24.8705H19.3878C19.3878 24.8705 19.3878 24.8705 19.3878 24.8705C19.3878 24.8705 19.3878 24.8705 19.3878 24.8705H19.3878C19.3878 24.8705 19.3878 24.8705 19.3878 24.8705C19.3878 24.8705 19.3878 24.8705 19.3878 24.8705H19.3878C19.3878 24.8705 19.3878 24.8705 19.3878 24.8705C19.3878 24.8705 19.3878 24.8705 19.3878 24.8705H19.3878C19.3878 24.8705 19.3878 24.8705 19.3878 24.8705C19.3878 24.8705 19.3878 24.8705 19.3878 24.8705H19.3878C19.3878 24.8705 19.3878 24.8705 19.3878 24.8705C19.3878 24.8705 19.3878 24.8705 19.3878 24.8705H19.3878C19.3878 24.8705 19.3878 24.8705 19.3878 24.8705C19.3878 24.8705 19.3878 24.8705 19.3878 24.8705H19.3878C19.3878 24.8705 19.3878 24.8705 19.3878 24.8705C19.3878 24.8705 19.3878 24.8705 19.3878 24.8705H19.3878C19.3878 24.8705 19.3878 24.8705 19.3878 24.8705C19.3878 24.8705 19.3878 24.8705 19.3878 24.8705C19.3878 24.8705 19.3878 24.8705 19.3878 24.8705C19.3878 24.8705 19.3878 24.8705 19.3878 24.8705H19.3878C19.3878 24.8705 19.3878 24.8705 19.3878 24.8705C19.3878 24.8705 19.3878 24.8705 19.3878 24.8705H19.3878C19.3878 24.8705 19.3878 24.8705 19.3878 24.8705C19.3878 24.8705 19.3878 24.8705 19.3878 24.8705H19.3878C19.3878 24.8705 19.3878 24.8705 19.3878 24.8705C19.3878 24.8705 19.3878 24.8705 19.3878 24.8705H19.3878C19.3878 24.8705 19.3878 24.8705 19.3878 24.8705C19.3878 24.8705 19.3878 24.8705 19.3878 24.8705C19.3878 24.8705 19.3878 24.8705 19.3878 24.8705C19.3878 24.8705 19.3878 24.8705 19.3877 24.8705H19.3877C19.3877 24.8705 19.3877 24.8705 19.3877 24.8705C19.3877 24.8705 19.3877 24.8705 19.3877 24.8705H19.3877C19.3877 24.8705 19.3877 24.8705 19.3877 24.8705C19.3877 24.8705 19.3877 24.8705 19.3877 24.8705C19.3877 24.8705 19.3877 24.8705 19.3877 24.8705C19.3877 24.8705 19.3877 24.8705 19.3877 24.8705H19.3877C19.3877 24.8705 19.3877 24.8705 19.3877 24.8705C19.3877 24.8705 19.3877 24.8705 19.3877 24.8705H19.3877C19.3877 24.8705 19.3877 24.8705 19.3877 24.8705H19.3877C19.3877 24.8705 19.3877 24.8705 19.3877 24.8705C19.3877 24.8705 19.3877 24.8705 19.3877 24.8705H19.3877C19.3877 24.8705 19.3877 24.8705 19.3877 24.8705H19.3877C19.3877 24.8705 19.3877 24.8705 19.3877 24.8705C19.3877 24.8705 19.3877 24.8705 19.3877 24.8705H19.3877C19.3877 24.8705 19.3877 24.8705 19.3877 24.8705H19.3877C19.3877 24.8705 19.3877 24.8705 19.3877 24.8705C19.3877 24.8705 19.3877 24.8705 19.3877 24.8705H19.3877C19.3877 24.8705 19.3877 24.8705 19.3877 24.8705H19.3877C19.3877 24.8705 19.3877 24.8705 19.3877 24.8705C19.3877 24.8705 19.3877 24.8705 19.3877 24.8705C19.3877 24.8705 19.3877 24.8705 19.3877 24.8705C19.3877 24.8705 19.3877 24.8705 19.3877 24.8705H19.3877C19.3877 24.8705 19.3877 24.8705 19.3877 24.8705H19.3877C19.3877 24.8705 19.3877 24.8705 19.3877 24.8705C19.3877 24.8705 19.3877 24.8705 19.3877 24.8705H19.3877C19.3877 24.8705 19.3877 24.8705 19.3877 24.8705H19.3877C19.3877 24.8705 19.3877 24.8705 19.3877 24.8705H19.3877C19.3877 24.8705 19.3877 24.8705 19.3877 24.8705C19.3877 24.8705 19.3877 24.8705 19.3877 24.8705C19.3877 24.8705 19.3877 24.8705 19.3877 24.8705C19.3877 24.8705 19.3877 24.8705 19.3877 24.8705H19.3877C19.3877 24.8705 19.3877 24.8705 19.3877 24.8705H19.3877C19.3877 24.8705 19.3877 24.8705 19.3877 24.8705H19.3876C19.3876 24.8705 19.3876 24.8705 19.3876 24.8705C19.3876 24.8705 19.3876 24.8705 19.3876 24.8705C19.3876 24.8705 19.3876 24.8705 19.3876 24.8705C19.3876 24.8705 19.3876 24.8705 19.3876 24.8705V28.8705ZM19.3884 28.8705C21.4507 28.8703 23.4713 28.1103 25.3726 26.8181L23.1242 23.5098C21.6938 24.482 20.444 24.8704 19.3881 24.8705L19.3884 28.8705ZM25.3729 26.818C34.6926 20.4821 40.4588 20.4116 40.7311 20.4116V16.4116C39.6625 16.4116 33.1118 16.72 23.124 23.51L25.3729 26.818ZM40.7311 20.4116C40.7394 20.4116 40.7436 20.4116 40.7435 20.4116C40.7435 20.4116 40.7424 20.4116 40.7401 20.4116C40.7382 20.4115 40.734 20.4114 40.7277 20.4112L40.8595 16.4134C40.8317 16.4125 40.7886 16.4116 40.7311 16.4116V20.4116ZM40.7261 20.4111L41.9325 20.4519L42.0675 16.4541L40.861 16.4134L40.7261 20.4111ZM43.3039 16.9365L42.3912 16.1518L39.7834 19.1848L40.6961 19.9695L43.3039 16.9365ZM42.3902 16.1509C41.9865 15.8043 39.7087 14.0834 31.5548 11.7856L30.4698 15.6356C38.4058 17.872 40.0299 19.3964 39.7845 19.1857L42.3902 16.1509ZM31.5548 11.7856L31.4719 11.7622L30.387 15.6123L30.4698 15.6356L31.5548 11.7856ZM30.6854 11.7022L30.6 11.7127L31.088 15.6828L31.1735 15.6723L30.6854 11.7022ZM30.6005 11.7126C29.854 11.8042 26.2712 12.2709 21.9073 13.2947C17.5829 14.3092 12.3053 15.9122 8.27421 18.3448L10.3409 21.7695C13.8249 19.6671 18.609 18.177 22.8209 17.1889C26.9932 16.2101 30.421 15.7646 31.0875 15.6829L30.6005 11.7126ZM8.26104 18.3528C8.21385 18.3818 8.16412 18.4086 8.04218 18.4723L9.89459 22.0175C10.0036 21.9606 10.1718 21.8734 10.3541 21.7615L8.26104 18.3528ZM8.04249 18.4722C7.97297 18.5085 7.8768 18.5586 7.77395 18.6157L9.71472 22.1133C9.76685 22.0844 9.81974 22.0566 9.89429 22.0177L8.04249 18.4722ZM31.1328 15.1971L31.6072 15.1428L31.1529 11.1687L30.6785 11.223L31.1328 15.1971ZM33.3276 12.7005L33.2194 12.238L29.3245 13.1485L29.4326 13.6111L33.3276 12.7005ZM33.2196 12.2385C33.1706 12.0286 32.4829 9.16718 30.5941 6.05311L27.174 8.12746C27.9582 9.42039 28.4964 10.6701 28.8406 11.6102C29.1842 12.5485 29.3258 13.1543 29.3243 13.148L33.2196 12.2385ZM30.5941 6.05307C29.4696 4.19912 28.1291 2.60694 26.5928 1.34778L24.0572 4.44145C25.1976 5.37615 26.252 6.60729 27.174 8.12749L30.5941 6.05307ZM26.5928 1.34777C24.6495 -0.244883 22.4218 -1.27793 19.9872 -1.69718L19.3084 2.2448C21.0398 2.54296 22.6321 3.2735 24.0572 4.44147L26.5928 1.34777ZM19.9866 -1.69728C18.8154 -1.89862 17.6113 -2 16.4059 -2V2C17.3888 2 18.3661 2.08282 19.309 2.2449L19.9866 -1.69728ZM16.4059 -2C13.4031 -2 10.4035 -1.37515 7.7219 -0.179702L9.3506 3.4737C11.5029 2.51419 13.9458 2 16.4059 2V-2ZM7.72185 -0.17968L7.55898 -0.107065L9.18777 3.54629L9.35065 3.47368L7.72185 -0.17968ZM6.49996 1.01938L6.43776 1.18579L10.1846 2.58626L10.2468 2.41984L6.49996 1.01938ZM6.43764 1.18613C6.08192 2.13834 5.84212 3.97725 6.60193 7.57597L10.5156 6.74966C9.82909 3.49788 10.2076 2.52474 10.1847 2.58592L6.43764 1.18613ZM6.6018 7.57538C7.37931 11.2635 8.77301 16.4169 9.32899 18.4369L13.1856 17.3754C12.6274 15.3474 11.2649 10.3036 10.5158 6.75025L6.6018 7.57538ZM9.32899 18.4369L9.46165 18.9189L13.3182 17.8574L13.1856 17.3754L9.32899 18.4369ZM12.2228 20.2065L12.6793 19.9974L11.0135 16.3607L10.5571 16.5698L12.2228 20.2065ZM12.6793 19.9974C16.4922 18.251 21.0613 17.0482 24.7523 16.2789C26.5854 15.8968 28.1767 15.6266 29.3142 15.4516C29.8825 15.3641 30.3364 15.3006 30.6493 15.2588C30.9636 15.2168 31.1335 15.197 31.1327 15.1971L30.6787 11.2229C30.5738 11.2349 19.3582 12.5386 11.0136 16.3607L12.6793 19.9974ZM-1.97101 14.9334C-1.84105 17.1261 -1.27369 19.383 -0.322379 21.6384L3.36319 20.0839C2.55959 18.1787 2.12099 16.3672 2.02198 14.6967L-1.97101 14.9334ZM-0.322862 21.6373L-0.300618 21.6901L3.38592 20.1379L3.36367 20.0851L-0.322862 21.6373ZM-0.0257481 22.155L0.00988565 22.2001L3.14668 19.718L3.11105 19.673L-0.0257481 22.155ZM0.00839889 22.1982C0.380416 22.6695 1.45693 23.6503 3.54029 23.6503V19.6503C3.16574 19.6503 3.01038 19.5691 2.99579 19.5614C2.97281 19.5493 3.03399 19.5752 3.14817 19.7199L0.00839889 22.1982ZM3.54029 23.6503C3.5403 23.6503 3.5403 23.6503 3.5403 23.6503C3.5403 23.6503 3.5403 23.6503 3.5403 23.6503C3.5403 23.6503 3.5403 23.6503 3.5403 23.6503C3.5403 23.6503 3.5403 23.6503 3.5403 23.6503C3.5403 23.6503 3.5403 23.6503 3.5403 23.6503C3.5403 23.6503 3.5403 23.6503 3.5403 23.6503C3.5403 23.6503 3.5403 23.6503 3.5403 23.6503C3.5403 23.6503 3.5403 23.6503 3.5403 23.6503C3.5403 23.6503 3.5403 23.6503 3.5403 23.6503C3.5403 23.6503 3.5403 23.6503 3.5403 23.6503C3.5403 23.6503 3.54031 23.6503 3.54031 23.6503C3.54031 23.6503 3.54031 23.6503 3.54031 23.6503C3.54031 23.6503 3.54031 23.6503 3.54031 23.6503C3.54031 23.6503 3.54031 23.6503 3.54031 23.6503C3.54031 23.6503 3.54031 23.6503 3.54031 23.6503C3.54031 23.6503 3.54031 23.6503 3.54031 23.6503C3.54031 23.6503 3.54031 23.6503 3.54031 23.6503C3.54031 23.6503 3.54031 23.6503 3.54031 23.6503C3.54031 23.6503 3.54031 23.6503 3.54031 23.6503C3.54031 23.6503 3.54031 23.6503 3.54031 23.6503C3.54031 23.6503 3.54031 23.6503 3.54031 23.6503C3.54031 23.6503 3.54032 23.6503 3.54032 23.6503C3.54032 23.6503 3.54032 23.6503 3.54032 23.6503C3.54032 23.6503 3.54032 23.6503 3.54032 23.6503C3.54032 23.6503 3.54032 23.6503 3.54032 23.6503C3.54032 23.6503 3.54032 23.6503 3.54032 23.6503C3.54032 23.6503 3.54032 23.6503 3.54032 23.6503C3.54032 23.6503 3.54032 23.6503 3.54032 23.6503C3.54032 23.6503 3.54032 23.6503 3.54032 23.6503C3.54032 23.6503 3.54032 23.6503 3.54032 23.6503C3.54032 23.6503 3.54032 23.6503 3.54032 23.6503C3.54032 23.6503 3.54032 23.6503 3.54032 23.6503C3.54032 23.6503 3.54032 23.6503 3.54032 23.6503C3.54032 23.6503 3.54033 23.6503 3.54033 23.6503C3.54033 23.6503 3.54033 23.6503 3.54033 23.6503C3.54033 23.6503 3.54033 23.6503 3.54033 23.6503C3.54033 23.6503 3.54033 23.6503 3.54033 23.6503C3.54033 23.6503 3.54033 23.6503 3.54033 23.6503C3.54033 23.6503 3.54033 23.6503 3.54033 23.6503C3.54033 23.6503 3.54033 23.6503 3.54033 23.6503C3.54033 23.6503 3.54033 23.6503 3.54033 23.6503C3.54033 23.6503 3.54033 23.6503 3.54033 23.6503C3.54033 23.6503 3.54033 23.6503 3.54033 23.6503C3.54033 23.6503 3.54033 23.6503 3.54033 23.6503C3.54033 23.6503 3.54033 23.6503 3.54033 23.6503C3.54033 23.6503 3.54033 23.6503 3.54033 23.6503C3.54034 23.6503 3.54034 23.6503 3.54034 23.6503C3.54034 23.6503 3.54034 23.6503 3.54034 23.6503C3.54034 23.6503 3.54034 23.6503 3.54034 23.6503C3.54034 23.6503 3.54034 23.6503 3.54034 23.6503C3.54034 23.6503 3.54034 23.6503 3.54034 23.6503C3.54034 23.6503 3.54034 23.6503 3.54034 23.6503C3.54034 23.6503 3.54034 23.6503 3.54034 23.6503C3.54034 23.6503 3.54034 23.6503 3.54034 23.6503C3.54034 23.6503 3.54034 23.6503 3.54034 23.6503C3.54034 23.6503 3.54034 23.6503 3.54034 23.6503C3.54034 23.6503 3.54034 23.6503 3.54034 23.6503C3.54034 23.6503 3.54034 23.6503 3.54034 23.6503C3.54034 23.6503 3.54034 23.6503 3.54034 23.6503C3.54034 23.6503 3.54034 23.6503 3.54034 23.6503C3.54035 23.6503 3.54035 23.6503 3.54035 23.6503C3.54035 23.6503 3.54035 23.6503 3.54035 23.6503C3.54035 23.6503 3.54035 23.6503 3.54035 23.6503C3.54035 23.6503 3.54035 23.6503 3.54035 23.6503C3.54035 23.6503 3.54035 23.6503 3.54035 23.6503C3.54035 23.6503 3.54035 23.6503 3.54035 23.6503C3.54035 23.6503 3.54035 23.6503 3.54035 23.6503C3.54035 23.6503 3.54035 23.6503 3.54035 23.6503C3.54035 23.6503 3.54035 23.6503 3.54035 23.6503C3.54035 23.6503 3.54035 23.6503 3.54035 23.6503C3.54035 23.6503 3.54035 23.6503 3.54035 23.6503C3.54035 23.6503 3.54035 23.6503 3.54035 23.6503C3.54035 23.6503 3.54035 23.6503 3.54035 23.6503C3.54035 23.6503 3.54035 23.6503 3.54035 23.6503C3.54035 23.6503 3.54035 23.6503 3.54035 23.6503C3.54035 23.6503 3.54035 23.6503 3.54036 23.6503C3.54036 23.6503 3.54036 23.6503 3.54036 23.6503C3.54036 23.6503 3.54036 23.6503 3.54036 23.6503C3.54036 23.6503 3.54036 23.6503 3.54036 23.6503C3.54036 23.6503 3.54036 23.6503 3.54036 23.6503C3.54036 23.6503 3.54036 23.6503 3.54036 23.6503C3.54036 23.6503 3.54036 23.6503 3.54036 23.6503C3.54036 23.6503 3.54036 23.6503 3.54036 23.6503C3.54036 23.6503 3.54036 23.6503 3.54036 23.6503C3.54036 23.6503 3.54036 23.6503 3.54036 23.6503C3.54036 23.6503 3.54036 23.6503 3.54036 23.6503C3.54036 23.6503 3.54036 23.6503 3.54036 23.6503C3.54036 23.6503 3.54036 23.6503 3.54036 23.6503C3.54036 23.6503 3.54036 23.6503 3.54036 23.6503C3.54036 23.6503 3.54036 23.6503 3.54036 23.6503C3.54036 23.6503 3.54036 23.6503 3.54036 23.6503C3.54036 23.6503 3.54036 23.6503 3.54036 23.6503C3.54036 23.6503 3.54036 23.6503 3.54037 23.6503C3.54037 23.6503 3.54037 23.6503 3.54037 23.6503C3.54037 23.6503 3.54037 23.6503 3.54037 23.6503C3.54037 23.6503 3.54037 23.6503 3.54037 23.6503C3.54037 23.6503 3.54037 23.6503 3.54037 23.6503C3.54037 23.6503 3.54037 23.6503 3.54037 23.6503C3.54037 23.6503 3.54037 23.6503 3.54037 23.6503C3.54037 23.6503 3.54037 23.6503 3.54037 23.6503C3.54037 23.6503 3.54037 23.6503 3.54037 23.6503C3.54037 23.6503 3.54037 23.6503 3.54037 23.6503C3.54037 23.6503 3.54037 23.6503 3.54037 23.6503C3.54037 23.6503 3.54037 23.6503 3.54037 23.6503C3.54037 23.6503 3.54037 23.6503 3.54037 23.6503C3.54037 23.6503 3.54037 23.6503 3.54037 23.6503C3.54037 23.6503 3.54037 23.6503 3.54037 23.6503C3.54037 23.6503 3.54037 23.6503 3.54037 23.6503C3.54037 23.6503 3.54037 23.6503 3.54037 23.6503C3.54037 23.6503 3.54037 23.6503 3.54037 23.6503C3.54037 23.6503 3.54037 23.6503 3.54037 23.6503C3.54037 23.6503 3.54037 23.6503 3.54037 23.6503C3.54038 23.6503 3.54038 23.6503 3.54038 23.6503C3.54038 23.6503 3.54038 23.6503 3.54038 23.6503C3.54038 23.6503 3.54038 23.6503 3.54038 23.6503C3.54038 23.6503 3.54038 23.6503 3.54038 23.6503C3.54038 23.6503 3.54038 23.6503 3.54038 23.6503C3.54038 23.6503 3.54038 23.6503 3.54038 23.6503C3.54038 23.6503 3.54038 23.6503 3.54038 23.6503C3.54038 23.6503 3.54038 23.6503 3.54038 23.6503C3.54038 23.6503 3.54038 23.6503 3.54038 23.6503C3.54038 23.6503 3.54038 23.6503 3.54038 23.6503H3.54038C3.54038 23.6503 3.54038 23.6503 3.54038 23.6503C3.54038 23.6503 3.54038 23.6503 3.54038 23.6503C3.54038 23.6503 3.54038 23.6503 3.54038 23.6503C3.54038 23.6503 3.54038 23.6503 3.54038 23.6503C3.54038 23.6503 3.54038 23.6503 3.54038 23.6503C3.54038 23.6503 3.54038 23.6503 3.54038 23.6503H3.54038C3.54038 23.6503 3.54038 23.6503 3.54038 23.6503C3.54038 23.6503 3.54038 23.6503 3.54038 23.6503C3.54038 23.6503 3.54038 23.6503 3.54038 23.6503H3.54038C3.54039 23.6503 3.54039 23.6503 3.54039 23.6503C3.54039 23.6503 3.54039 23.6503 3.54039 23.6503C3.54039 23.6503 3.54039 23.6503 3.54039 23.6503H3.54039C3.54039 23.6503 3.54039 23.6503 3.54039 23.6503C3.54039 23.6503 3.54039 23.6503 3.54039 23.6503H3.54039C3.54039 23.6503 3.54039 23.6503 3.54039 23.6503C3.54039 23.6503 3.54039 23.6503 3.54039 23.6503H3.54039C3.54039 23.6503 3.54039 23.6503 3.54039 23.6503C3.54039 23.6503 3.54039 23.6503 3.54039 23.6503H3.54039C3.54039 23.6503 3.54039 23.6503 3.54039 23.6503H3.54039C3.54039 23.6503 3.54039 23.6503 3.54039 23.6503C3.54039 23.6503 3.54039 23.6503 3.54039 23.6503H3.54039C3.54039 23.6503 3.54039 23.6503 3.54039 23.6503H3.54039C3.54039 23.6503 3.54039 23.6503 3.54039 23.6503H3.54039C3.54039 23.6503 3.54039 23.6503 3.54039 23.6503H3.54039C3.54039 23.6503 3.54039 23.6503 3.54039 23.6503H3.54039C3.5404 23.6503 3.5404 23.6503 3.5404 23.6503H3.5404C3.5404 23.6503 3.5404 23.6503 3.5404 23.6503H3.5404C3.5404 23.6503 3.5404 23.6503 3.5404 23.6503H3.5404H3.5404C3.5404 23.6503 3.5404 23.6503 3.5404 23.6503H3.5404C3.5404 23.6503 3.5404 23.6503 3.5404 23.6503H3.5404H3.5404C3.5404 23.6503 3.5404 23.6503 3.5404 23.6503H3.5404C3.5404 23.6503 3.5404 23.6503 3.5404 23.6503C3.5404 23.6503 3.5404 23.6503 3.5404 23.6503H3.5404C3.5404 23.6503 3.5404 23.6503 3.5404 23.6503C3.5404 23.6503 3.5404 23.6503 3.5404 23.6503H3.5404C3.5404 23.6503 3.5404 23.6503 3.5404 23.6503C3.5404 23.6503 3.5404 23.6503 3.5404 23.6503H3.5404C3.5404 23.6503 3.5404 23.6503 3.5404 23.6503C3.5404 23.6503 3.5404 23.6503 3.5404 23.6503C3.5404 23.6503 3.5404 23.6503 3.5404 23.6503H3.5404C3.5404 23.6503 3.5404 23.6503 3.5404 23.6503C3.5404 23.6503 3.5404 23.6503 3.5404 23.6503H3.5404H3.5404C3.54041 23.6503 3.54041 23.6503 3.54041 23.6503C3.54041 23.6503 3.54041 23.6503 3.54041 23.6503C3.54041 23.6503 3.54041 23.6503 3.54041 23.6503H3.54041C3.54041 23.6503 3.54041 23.6503 3.54041 23.6503C3.54041 23.6503 3.54041 23.6503 3.54041 23.6503C3.54041 23.6503 3.54041 23.6503 3.54041 23.6503H3.54041H3.54041C3.54041 23.6503 3.54041 23.6503 3.54041 23.6503C3.54041 23.6503 3.54041 23.6503 3.54041 23.6503C3.54041 23.6503 3.54041 23.6503 3.54041 23.6503C3.54041 23.6503 3.54041 23.6503 3.54041 23.6503H3.54041H3.54041C3.54041 23.6503 3.54041 23.6503 3.54041 23.6503C3.54041 23.6503 3.54041 23.6503 3.54041 23.6503C3.54041 23.6503 3.54041 23.6503 3.54041 23.6503C3.54041 23.6503 3.54041 23.6503 3.54041 23.6503H3.54041H3.54041H3.54041C3.54041 23.6503 3.54041 23.6503 3.54041 23.6503C3.54041 23.6503 3.54041 23.6503 3.54041 23.6503C3.54041 23.6503 3.54041 23.6503 3.54041 23.6503C3.54041 23.6503 3.54041 23.6503 3.54041 23.6503C3.54041 23.6503 3.54041 23.6503 3.54041 23.6503H3.54041H3.54041H3.54041H3.54041C3.54041 23.6503 3.54041 23.6503 3.54041 23.6503C3.54041 23.6503 3.54041 23.6503 3.54041 23.6503C3.54041 23.6503 3.54041 23.6503 3.54041 23.6503C3.54041 23.6503 3.54041 23.6503 3.54041 23.6503C3.54041 23.6503 3.54041 23.6503 3.54041 23.6503C3.54041 23.6503 3.54041 23.6503 3.54042 23.6503C3.54042 23.6503 3.54042 23.6503 3.54042 23.6503C3.54042 23.6503 3.54042 23.6503 3.54042 23.6503H3.54042H3.54042H3.54042H3.54042H3.54042C3.54042 23.6503 3.54042 23.6503 3.54042 23.6503C3.54042 23.6503 3.54042 23.6503 3.54042 23.6503C3.54042 23.6503 3.54042 23.6503 3.54042 23.6503C3.54042 23.6503 3.54042 23.6503 3.54042 23.6503C3.54042 23.6503 3.54042 23.6503 3.54042 23.6503C3.54042 23.6503 3.54042 23.6503 3.54042 23.6503C3.54042 23.6503 3.54042 23.6503 3.54042 23.6503C3.54042 23.6503 3.54042 23.6503 3.54042 23.6503C3.54042 23.6503 3.54042 23.6503 3.54042 23.6503C3.54042 23.6503 3.54042 23.6503 3.54042 23.6503C3.54042 23.6503 3.54042 23.6503 3.54042 23.6503C3.54042 23.6503 3.54042 23.6503 3.54042 23.6503C3.54042 23.6503 3.54042 23.6503 3.54042 23.6503H3.54042H3.54042H3.54042H3.54042H3.54042H3.54042H3.54042H3.54042H3.54042C3.54042 23.6503 3.54042 23.6503 3.54042 23.6503C3.54042 23.6503 3.54042 23.6503 3.54042 23.6503C3.54042 23.6503 3.54042 23.6503 3.54042 23.6503C3.54042 23.6503 3.54042 23.6503 3.54042 23.6503C3.54042 23.6503 3.54042 23.6503 3.54042 23.6503C3.54042 23.6503 3.54042 23.6503 3.54042 23.6503C3.54042 23.6503 3.54042 23.6503 3.54042 23.6503C3.54042 23.6503 3.54042 23.6503 3.54042 23.6503C3.54042 23.6503 3.54042 23.6503 3.54042 23.6503C3.54042 23.6503 3.54042 23.6503 3.54042 23.6503C3.54042 23.6503 3.54042 23.6503 3.54043 23.6503C3.54043 23.6503 3.54043 23.6503 3.54043 23.6503C3.54043 23.6503 3.54043 23.6503 3.54043 23.6503C3.54043 23.6503 3.54043 23.6503 3.54043 23.6503C3.54043 23.6503 3.54043 23.6503 3.54043 23.6503H3.54043H3.54043H3.54043H3.54043H3.54043H3.54043C3.54043 23.6503 3.54043 23.6503 3.54043 23.6503C3.54043 23.6503 3.54043 23.6503 3.54043 23.6503C3.54043 23.6503 3.54043 23.6503 3.54043 23.6503C3.54043 23.6503 3.54043 23.6503 3.54043 23.6503C3.54043 23.6503 3.54043 23.6503 3.54043 23.6503C3.54043 23.6503 3.54043 23.6503 3.54043 23.6503C3.54043 23.6503 3.54043 23.6503 3.54043 23.6503C3.54043 23.6503 3.54043 23.6503 3.54043 23.6503C3.54043 23.6503 3.54043 23.6503 3.54043 23.6503H3.54043H3.54043H3.54043H3.54043C3.54043 23.6503 3.54043 23.6503 3.54043 23.6503C3.54043 23.6503 3.54043 23.6503 3.54043 23.6503C3.54043 23.6503 3.54043 23.6503 3.54043 23.6503C3.54043 23.6503 3.54043 23.6503 3.54043 23.6503C3.54043 23.6503 3.54043 23.6503 3.54043 23.6503C3.54043 23.6503 3.54043 23.6503 3.54043 23.6503H3.54043H3.54043H3.54043C3.54043 23.6503 3.54043 23.6503 3.54043 23.6503C3.54043 23.6503 3.54043 23.6503 3.54043 23.6503C3.54043 23.6503 3.54043 23.6503 3.54043 23.6503C3.54043 23.6503 3.54043 23.6503 3.54043 23.6503H3.54043H3.54043C3.54044 23.6503 3.54044 23.6503 3.54044 23.6503C3.54044 23.6503 3.54044 23.6503 3.54044 23.6503C3.54044 23.6503 3.54044 23.6503 3.54044 23.6503C3.54044 23.6503 3.54044 23.6503 3.54044 23.6503H3.54044H3.54044C3.54044 23.6503 3.54044 23.6503 3.54044 23.6503C3.54044 23.6503 3.54044 23.6503 3.54044 23.6503C3.54044 23.6503 3.54044 23.6503 3.54044 23.6503H3.54044H3.54044C3.54044 23.6503 3.54044 23.6503 3.54044 23.6503C3.54044 23.6503 3.54044 23.6503 3.54044 23.6503C3.54044 23.6503 3.54044 23.6503 3.54044 23.6503H3.54044C3.54044 23.6503 3.54044 23.6503 3.54044 23.6503C3.54044 23.6503 3.54044 23.6503 3.54044 23.6503C3.54044 23.6503 3.54044 23.6503 3.54044 23.6503H3.54044C3.54044 23.6503 3.54044 23.6503 3.54044 23.6503C3.54044 23.6503 3.54044 23.6503 3.54044 23.6503H3.54044H3.54044C3.54044 23.6503 3.54044 23.6503 3.54044 23.6503C3.54044 23.6503 3.54044 23.6503 3.54044 23.6503H3.54044C3.54044 23.6503 3.54044 23.6503 3.54044 23.6503C3.54044 23.6503 3.54044 23.6503 3.54044 23.6503H3.54044C3.54044 23.6503 3.54044 23.6503 3.54044 23.6503C3.54044 23.6503 3.54044 23.6503 3.54044 23.6503H3.54044C3.54044 23.6503 3.54044 23.6503 3.54044 23.6503C3.54044 23.6503 3.54044 23.6503 3.54045 23.6503H3.54045C3.54045 23.6503 3.54045 23.6503 3.54045 23.6503H3.54045C3.54045 23.6503 3.54045 23.6503 3.54045 23.6503C3.54045 23.6503 3.54045 23.6503 3.54045 23.6503H3.54045C3.54045 23.6503 3.54045 23.6503 3.54045 23.6503H3.54045C3.54045 23.6503 3.54045 23.6503 3.54045 23.6503H3.54045C3.54045 23.6503 3.54045 23.6503 3.54045 23.6503H3.54045C3.54045 23.6503 3.54045 23.6503 3.54045 23.6503C3.54045 23.6503 3.54045 23.6503 3.54045 23.6503H3.54045C3.54045 23.6503 3.54045 23.6503 3.54045 23.6503C3.54045 23.6503 3.54045 23.6503 3.54045 23.6503H3.54045C3.54045 23.6503 3.54045 23.6503 3.54045 23.6503H3.54045C3.54045 23.6503 3.54045 23.6503 3.54045 23.6503H3.54045C3.54045 23.6503 3.54045 23.6503 3.54045 23.6503H3.54045C3.54045 23.6503 3.54045 23.6503 3.54045 23.6503C3.54045 23.6503 3.54045 23.6503 3.54045 23.6503H3.54045C3.54045 23.6503 3.54045 23.6503 3.54046 23.6503C3.54046 23.6503 3.54046 23.6503 3.54046 23.6503H3.54046C3.54046 23.6503 3.54046 23.6503 3.54046 23.6503C3.54046 23.6503 3.54046 23.6503 3.54046 23.6503H3.54046C3.54046 23.6503 3.54046 23.6503 3.54046 23.6503C3.54046 23.6503 3.54046 23.6503 3.54046 23.6503H3.54046C3.54046 23.6503 3.54046 23.6503 3.54046 23.6503C3.54046 23.6503 3.54046 23.6503 3.54046 23.6503C3.54046 23.6503 3.54046 23.6503 3.54046 23.6503H3.54046C3.54046 23.6503 3.54046 23.6503 3.54046 23.6503C3.54046 23.6503 3.54046 23.6503 3.54046 23.6503C3.54046 23.6503 3.54046 23.6503 3.54046 23.6503C3.54046 23.6503 3.54046 23.6503 3.54046 23.6503H3.54046C3.54046 23.6503 3.54046 23.6503 3.54046 23.6503C3.54046 23.6503 3.54046 23.6503 3.54046 23.6503C3.54046 23.6503 3.54046 23.6503 3.54046 23.6503C3.54046 23.6503 3.54046 23.6503 3.54046 23.6503C3.54046 23.6503 3.54046 23.6503 3.54046 23.6503C3.54046 23.6503 3.54046 23.6503 3.54046 23.6503C3.54046 23.6503 3.54047 23.6503 3.54047 23.6503H3.54047C3.54047 23.6503 3.54047 23.6503 3.54047 23.6503C3.54047 23.6503 3.54047 23.6503 3.54047 23.6503C3.54047 23.6503 3.54047 23.6503 3.54047 23.6503C3.54047 23.6503 3.54047 23.6503 3.54047 23.6503C3.54047 23.6503 3.54047 23.6503 3.54047 23.6503C3.54047 23.6503 3.54047 23.6503 3.54047 23.6503C3.54047 23.6503 3.54047 23.6503 3.54047 23.6503C3.54047 23.6503 3.54047 23.6503 3.54047 23.6503C3.54047 23.6503 3.54047 23.6503 3.54047 23.6503C3.54047 23.6503 3.54047 23.6503 3.54047 23.6503C3.54047 23.6503 3.54047 23.6503 3.54047 23.6503C3.54047 23.6503 3.54047 23.6503 3.54047 23.6503C3.54047 23.6503 3.54047 23.6503 3.54047 23.6503C3.54047 23.6503 3.54047 23.6503 3.54047 23.6503C3.54047 23.6503 3.54047 23.6503 3.54047 23.6503C3.54047 23.6503 3.54047 23.6503 3.54047 23.6503C3.54047 23.6503 3.54047 23.6503 3.54047 23.6503C3.54047 23.6503 3.54047 23.6503 3.54047 23.6503C3.54047 23.6503 3.54047 23.6503 3.54048 23.6503C3.54048 23.6503 3.54048 23.6503 3.54048 23.6503C3.54048 23.6503 3.54048 23.6503 3.54048 23.6503C3.54048 23.6503 3.54048 23.6503 3.54048 23.6503C3.54048 23.6503 3.54048 23.6503 3.54048 23.6503C3.54048 23.6503 3.54048 23.6503 3.54048 23.6503C3.54048 23.6503 3.54048 23.6503 3.54048 23.6503C3.54048 23.6503 3.54048 23.6503 3.54048 23.6503C3.54048 23.6503 3.54048 23.6503 3.54048 23.6503C3.54048 23.6503 3.54048 23.6503 3.54048 23.6503C3.54048 23.6503 3.54048 23.6503 3.54048 23.6503C3.54048 23.6503 3.54048 23.6503 3.54048 23.6503C3.54048 23.6503 3.54048 23.6503 3.54048 23.6503C3.54048 23.6503 3.54048 23.6503 3.54048 23.6503C3.54048 23.6503 3.54048 23.6503 3.54048 23.6503C3.54048 23.6503 3.54048 23.6503 3.54048 23.6503C3.54048 23.6503 3.54048 23.6503 3.54048 23.6503C3.54048 23.6503 3.54048 23.6503 3.54048 23.6503C3.54048 23.6503 3.54048 23.6503 3.54049 23.6503C3.54049 23.6503 3.54049 23.6503 3.54049 23.6503C3.54049 23.6503 3.54049 23.6503 3.54049 23.6503C3.54049 23.6503 3.54049 23.6503 3.54049 23.6503C3.54049 23.6503 3.54049 23.6503 3.54049 23.6503C3.54049 23.6503 3.54049 23.6503 3.54049 23.6503C3.54049 23.6503 3.54049 23.6503 3.54049 23.6503C3.54049 23.6503 3.54049 23.6503 3.54049 23.6503C3.54049 23.6503 3.54049 23.6503 3.54049 23.6503C3.54049 23.6503 3.54049 23.6503 3.54049 23.6503C3.54049 23.6503 3.54049 23.6503 3.54049 23.6503C3.54049 23.6503 3.54049 23.6503 3.54049 23.6503C3.54049 23.6503 3.54049 23.6503 3.54049 23.6503C3.54049 23.6503 3.54049 23.6503 3.54049 23.6503C3.54049 23.6503 3.54049 23.6503 3.54049 23.6503C3.54049 23.6503 3.54049 23.6503 3.54049 23.6503C3.54049 23.6503 3.54049 23.6503 3.5405 23.6503C3.5405 23.6503 3.5405 23.6503 3.5405 23.6503C3.5405 23.6503 3.5405 23.6503 3.5405 23.6503C3.5405 23.6503 3.5405 23.6503 3.5405 23.6503C3.5405 23.6503 3.5405 23.6503 3.5405 23.6503C3.5405 23.6503 3.5405 23.6503 3.5405 23.6503C3.5405 23.6503 3.5405 23.6503 3.5405 23.6503C3.5405 23.6503 3.5405 23.6503 3.5405 23.6503C3.5405 23.6503 3.5405 23.6503 3.5405 23.6503C3.5405 23.6503 3.5405 23.6503 3.5405 23.6503C3.5405 23.6503 3.5405 23.6503 3.5405 23.6503C3.5405 23.6503 3.5405 23.6503 3.5405 23.6503C3.5405 23.6503 3.5405 23.6503 3.5405 23.6503C3.5405 23.6503 3.5405 23.6503 3.5405 23.6503C3.5405 23.6503 3.5405 23.6503 3.5405 23.6503C3.5405 23.6503 3.54051 23.6503 3.54051 23.6503C3.54051 23.6503 3.54051 23.6503 3.54051 23.6503C3.54051 23.6503 3.54051 23.6503 3.54051 23.6503C3.54051 23.6503 3.54051 23.6503 3.54051 23.6503C3.54051 23.6503 3.54051 23.6503 3.54051 23.6503C3.54051 23.6503 3.54051 23.6503 3.54051 23.6503C3.54051 23.6503 3.54051 23.6503 3.54051 23.6503C3.54051 23.6503 3.54051 23.6503 3.54051 23.6503C3.54051 23.6503 3.54051 23.6503 3.54051 23.6503C3.54051 23.6503 3.54051 23.6503 3.54051 23.6503C3.54051 23.6503 3.54051 23.6503 3.54051 23.6503C3.54051 23.6503 3.54051 23.6503 3.54051 23.6503C3.54051 23.6503 3.54051 23.6503 3.54051 23.6503C3.54051 23.6503 3.54051 23.6503 3.54052 23.6503C3.54052 23.6503 3.54052 23.6503 3.54052 23.6503C3.54052 23.6503 3.54052 23.6503 3.54052 23.6503C3.54052 23.6503 3.54052 23.6503 3.54052 23.6503C3.54052 23.6503 3.54052 23.6503 3.54052 23.6503C3.54052 23.6503 3.54052 23.6503 3.54052 23.6503C3.54052 23.6503 3.54052 23.6503 3.54052 23.6503C3.54052 23.6503 3.54052 23.6503 3.54052 23.6503C3.54052 23.6503 3.54052 23.6503 3.54052 23.6503C3.54052 23.6503 3.54052 23.6503 3.54052 23.6503C3.54052 23.6503 3.54052 23.6503 3.54052 23.6503C3.54052 23.6503 3.54052 23.6503 3.54052 23.6503C3.54052 23.6503 3.54052 23.6503 3.54053 23.6503C3.54053 23.6503 3.54053 23.6503 3.54053 23.6503C3.54053 23.6503 3.54053 23.6503 3.54053 23.6503C3.54053 23.6503 3.54053 23.6503 3.54053 23.6503C3.54053 23.6503 3.54053 23.6503 3.54053 23.6503C3.54053 23.6503 3.54053 23.6503 3.54053 23.6503C3.54053 23.6503 3.54053 23.6503 3.54053 23.6503C3.54053 23.6503 3.54053 23.6503 3.54053 23.6503C3.54053 23.6503 3.54053 23.6503 3.54053 23.6503C3.54053 23.6503 3.54053 23.6503 3.54053 23.6503C3.54053 23.6503 3.54053 23.6503 3.54053 23.6503C3.54053 23.6503 3.54053 23.6503 3.54053 23.6503C3.54053 23.6503 3.54054 23.6503 3.54054 23.6503C3.54054 23.6503 3.54054 23.6503 3.54054 23.6503C3.54054 23.6503 3.54054 23.6503 3.54054 23.6503C3.54054 23.6503 3.54054 23.6503 3.54054 23.6503C3.54054 23.6503 3.54054 23.6503 3.54054 23.6503C3.54054 23.6503 3.54054 23.6503 3.54054 23.6503C3.54054 23.6503 3.54054 23.6503 3.54054 23.6503C3.54054 23.6503 3.54054 23.6503 3.54054 23.6503C3.54054 23.6503 3.54054 23.6503 3.54054 23.6503C3.54054 23.6503 3.54054 23.6503 3.54054 23.6503C3.54054 23.6503 3.54054 23.6503 3.54055 23.6503C3.54055 23.6503 3.54055 23.6503 3.54055 23.6503C3.54055 23.6503 3.54055 23.6503 3.54055 23.6503C3.54055 23.6503 3.54055 23.6503 3.54055 23.6503C3.54055 23.6503 3.54055 23.6503 3.54055 23.6503V19.6503C3.54055 19.6503 3.54055 19.6503 3.54055 19.6503C3.54055 19.6503 3.54055 19.6503 3.54055 19.6503C3.54055 19.6503 3.54055 19.6503 3.54055 19.6503C3.54055 19.6503 3.54055 19.6503 3.54055 19.6503C3.54054 19.6503 3.54054 19.6503 3.54054 19.6503C3.54054 19.6503 3.54054 19.6503 3.54054 19.6503C3.54054 19.6503 3.54054 19.6503 3.54054 19.6503C3.54054 19.6503 3.54054 19.6503 3.54054 19.6503C3.54054 19.6503 3.54054 19.6503 3.54054 19.6503C3.54054 19.6503 3.54054 19.6503 3.54054 19.6503C3.54054 19.6503 3.54054 19.6503 3.54054 19.6503C3.54054 19.6503 3.54054 19.6503 3.54054 19.6503C3.54054 19.6503 3.54054 19.6503 3.54054 19.6503C3.54054 19.6503 3.54054 19.6503 3.54054 19.6503C3.54054 19.6503 3.54053 19.6503 3.54053 19.6503C3.54053 19.6503 3.54053 19.6503 3.54053 19.6503C3.54053 19.6503 3.54053 19.6503 3.54053 19.6503C3.54053 19.6503 3.54053 19.6503 3.54053 19.6503C3.54053 19.6503 3.54053 19.6503 3.54053 19.6503C3.54053 19.6503 3.54053 19.6503 3.54053 19.6503C3.54053 19.6503 3.54053 19.6503 3.54053 19.6503C3.54053 19.6503 3.54053 19.6503 3.54053 19.6503C3.54053 19.6503 3.54053 19.6503 3.54053 19.6503C3.54053 19.6503 3.54053 19.6503 3.54053 19.6503C3.54053 19.6503 3.54053 19.6503 3.54053 19.6503C3.54053 19.6503 3.54053 19.6503 3.54053 19.6503C3.54052 19.6503 3.54052 19.6503 3.54052 19.6503C3.54052 19.6503 3.54052 19.6503 3.54052 19.6503C3.54052 19.6503 3.54052 19.6503 3.54052 19.6503C3.54052 19.6503 3.54052 19.6503 3.54052 19.6503C3.54052 19.6503 3.54052 19.6503 3.54052 19.6503C3.54052 19.6503 3.54052 19.6503 3.54052 19.6503C3.54052 19.6503 3.54052 19.6503 3.54052 19.6503C3.54052 19.6503 3.54052 19.6503 3.54052 19.6503C3.54052 19.6503 3.54052 19.6503 3.54052 19.6503C3.54052 19.6503 3.54052 19.6503 3.54052 19.6503C3.54052 19.6503 3.54052 19.6503 3.54052 19.6503C3.54052 19.6503 3.54052 19.6503 3.54052 19.6503C3.54051 19.6503 3.54051 19.6503 3.54051 19.6503C3.54051 19.6503 3.54051 19.6503 3.54051 19.6503C3.54051 19.6503 3.54051 19.6503 3.54051 19.6503C3.54051 19.6503 3.54051 19.6503 3.54051 19.6503C3.54051 19.6503 3.54051 19.6503 3.54051 19.6503C3.54051 19.6503 3.54051 19.6503 3.54051 19.6503C3.54051 19.6503 3.54051 19.6503 3.54051 19.6503C3.54051 19.6503 3.54051 19.6503 3.54051 19.6503C3.54051 19.6503 3.54051 19.6503 3.54051 19.6503C3.54051 19.6503 3.54051 19.6503 3.54051 19.6503C3.54051 19.6503 3.54051 19.6503 3.54051 19.6503C3.54051 19.6503 3.54051 19.6503 3.54051 19.6503C3.54051 19.6503 3.54051 19.6503 3.54051 19.6503C3.54051 19.6503 3.5405 19.6503 3.5405 19.6503C3.5405 19.6503 3.5405 19.6503 3.5405 19.6503C3.5405 19.6503 3.5405 19.6503 3.5405 19.6503C3.5405 19.6503 3.5405 19.6503 3.5405 19.6503C3.5405 19.6503 3.5405 19.6503 3.5405 19.6503C3.5405 19.6503 3.5405 19.6503 3.5405 19.6503C3.5405 19.6503 3.5405 19.6503 3.5405 19.6503C3.5405 19.6503 3.5405 19.6503 3.5405 19.6503C3.5405 19.6503 3.5405 19.6503 3.5405 19.6503C3.5405 19.6503 3.5405 19.6503 3.5405 19.6503C3.5405 19.6503 3.5405 19.6503 3.5405 19.6503C3.5405 19.6503 3.5405 19.6503 3.5405 19.6503C3.5405 19.6503 3.5405 19.6503 3.5405 19.6503C3.5405 19.6503 3.5405 19.6503 3.5405 19.6503C3.5405 19.6503 3.5405 19.6503 3.5405 19.6503C3.54049 19.6503 3.54049 19.6503 3.54049 19.6503C3.54049 19.6503 3.54049 19.6503 3.54049 19.6503C3.54049 19.6503 3.54049 19.6503 3.54049 19.6503C3.54049 19.6503 3.54049 19.6503 3.54049 19.6503C3.54049 19.6503 3.54049 19.6503 3.54049 19.6503C3.54049 19.6503 3.54049 19.6503 3.54049 19.6503C3.54049 19.6503 3.54049 19.6503 3.54049 19.6503C3.54049 19.6503 3.54049 19.6503 3.54049 19.6503C3.54049 19.6503 3.54049 19.6503 3.54049 19.6503C3.54049 19.6503 3.54049 19.6503 3.54049 19.6503C3.54049 19.6503 3.54049 19.6503 3.54049 19.6503C3.54049 19.6503 3.54049 19.6503 3.54049 19.6503C3.54049 19.6503 3.54049 19.6503 3.54049 19.6503C3.54049 19.6503 3.54049 19.6503 3.54049 19.6503C3.54049 19.6503 3.54049 19.6503 3.54049 19.6503C3.54049 19.6503 3.54049 19.6503 3.54049 19.6503C3.54048 19.6503 3.54048 19.6503 3.54048 19.6503C3.54048 19.6503 3.54048 19.6503 3.54048 19.6503C3.54048 19.6503 3.54048 19.6503 3.54048 19.6503C3.54048 19.6503 3.54048 19.6503 3.54048 19.6503C3.54048 19.6503 3.54048 19.6503 3.54048 19.6503C3.54048 19.6503 3.54048 19.6503 3.54048 19.6503C3.54048 19.6503 3.54048 19.6503 3.54048 19.6503C3.54048 19.6503 3.54048 19.6503 3.54048 19.6503C3.54048 19.6503 3.54048 19.6503 3.54048 19.6503C3.54048 19.6503 3.54048 19.6503 3.54048 19.6503C3.54048 19.6503 3.54048 19.6503 3.54048 19.6503C3.54048 19.6503 3.54048 19.6503 3.54048 19.6503C3.54048 19.6503 3.54048 19.6503 3.54048 19.6503C3.54048 19.6503 3.54048 19.6503 3.54048 19.6503C3.54048 19.6503 3.54048 19.6503 3.54048 19.6503C3.54048 19.6503 3.54048 19.6503 3.54048 19.6503C3.54048 19.6503 3.54048 19.6503 3.54048 19.6503C3.54048 19.6503 3.54048 19.6503 3.54048 19.6503C3.54047 19.6503 3.54047 19.6503 3.54047 19.6503C3.54047 19.6503 3.54047 19.6503 3.54047 19.6503C3.54047 19.6503 3.54047 19.6503 3.54047 19.6503C3.54047 19.6503 3.54047 19.6503 3.54047 19.6503C3.54047 19.6503 3.54047 19.6503 3.54047 19.6503C3.54047 19.6503 3.54047 19.6503 3.54047 19.6503C3.54047 19.6503 3.54047 19.6503 3.54047 19.6503C3.54047 19.6503 3.54047 19.6503 3.54047 19.6503C3.54047 19.6503 3.54047 19.6503 3.54047 19.6503C3.54047 19.6503 3.54047 19.6503 3.54047 19.6503C3.54047 19.6503 3.54047 19.6503 3.54047 19.6503C3.54047 19.6503 3.54047 19.6503 3.54047 19.6503C3.54047 19.6503 3.54047 19.6503 3.54047 19.6503C3.54047 19.6503 3.54047 19.6503 3.54047 19.6503C3.54047 19.6503 3.54047 19.6503 3.54047 19.6503C3.54047 19.6503 3.54047 19.6503 3.54047 19.6503C3.54047 19.6503 3.54047 19.6503 3.54047 19.6503C3.54047 19.6503 3.54047 19.6503 3.54047 19.6503C3.54047 19.6503 3.54047 19.6503 3.54047 19.6503H3.54047C3.54047 19.6503 3.54046 19.6503 3.54046 19.6503C3.54046 19.6503 3.54046 19.6503 3.54046 19.6503C3.54046 19.6503 3.54046 19.6503 3.54046 19.6503C3.54046 19.6503 3.54046 19.6503 3.54046 19.6503C3.54046 19.6503 3.54046 19.6503 3.54046 19.6503C3.54046 19.6503 3.54046 19.6503 3.54046 19.6503C3.54046 19.6503 3.54046 19.6503 3.54046 19.6503H3.54046C3.54046 19.6503 3.54046 19.6503 3.54046 19.6503C3.54046 19.6503 3.54046 19.6503 3.54046 19.6503C3.54046 19.6503 3.54046 19.6503 3.54046 19.6503C3.54046 19.6503 3.54046 19.6503 3.54046 19.6503H3.54046C3.54046 19.6503 3.54046 19.6503 3.54046 19.6503C3.54046 19.6503 3.54046 19.6503 3.54046 19.6503C3.54046 19.6503 3.54046 19.6503 3.54046 19.6503H3.54046C3.54046 19.6503 3.54046 19.6503 3.54046 19.6503C3.54046 19.6503 3.54046 19.6503 3.54046 19.6503H3.54046C3.54046 19.6503 3.54046 19.6503 3.54046 19.6503C3.54046 19.6503 3.54046 19.6503 3.54046 19.6503H3.54046C3.54046 19.6503 3.54046 19.6503 3.54046 19.6503C3.54045 19.6503 3.54045 19.6503 3.54045 19.6503H3.54045C3.54045 19.6503 3.54045 19.6503 3.54045 19.6503C3.54045 19.6503 3.54045 19.6503 3.54045 19.6503H3.54045C3.54045 19.6503 3.54045 19.6503 3.54045 19.6503H3.54045C3.54045 19.6503 3.54045 19.6503 3.54045 19.6503H3.54045C3.54045 19.6503 3.54045 19.6503 3.54045 19.6503H3.54045C3.54045 19.6503 3.54045 19.6503 3.54045 19.6503C3.54045 19.6503 3.54045 19.6503 3.54045 19.6503H3.54045C3.54045 19.6503 3.54045 19.6503 3.54045 19.6503C3.54045 19.6503 3.54045 19.6503 3.54045 19.6503H3.54045C3.54045 19.6503 3.54045 19.6503 3.54045 19.6503H3.54045C3.54045 19.6503 3.54045 19.6503 3.54045 19.6503H3.54045C3.54045 19.6503 3.54045 19.6503 3.54045 19.6503H3.54045C3.54045 19.6503 3.54045 19.6503 3.54045 19.6503C3.54045 19.6503 3.54045 19.6503 3.54045 19.6503H3.54045C3.54045 19.6503 3.54045 19.6503 3.54045 19.6503H3.54045C3.54044 19.6503 3.54044 19.6503 3.54044 19.6503C3.54044 19.6503 3.54044 19.6503 3.54044 19.6503H3.54044C3.54044 19.6503 3.54044 19.6503 3.54044 19.6503C3.54044 19.6503 3.54044 19.6503 3.54044 19.6503H3.54044C3.54044 19.6503 3.54044 19.6503 3.54044 19.6503C3.54044 19.6503 3.54044 19.6503 3.54044 19.6503H3.54044C3.54044 19.6503 3.54044 19.6503 3.54044 19.6503C3.54044 19.6503 3.54044 19.6503 3.54044 19.6503H3.54044H3.54044C3.54044 19.6503 3.54044 19.6503 3.54044 19.6503C3.54044 19.6503 3.54044 19.6503 3.54044 19.6503H3.54044C3.54044 19.6503 3.54044 19.6503 3.54044 19.6503C3.54044 19.6503 3.54044 19.6503 3.54044 19.6503C3.54044 19.6503 3.54044 19.6503 3.54044 19.6503H3.54044C3.54044 19.6503 3.54044 19.6503 3.54044 19.6503C3.54044 19.6503 3.54044 19.6503 3.54044 19.6503C3.54044 19.6503 3.54044 19.6503 3.54044 19.6503H3.54044H3.54044C3.54044 19.6503 3.54044 19.6503 3.54044 19.6503C3.54044 19.6503 3.54044 19.6503 3.54044 19.6503C3.54044 19.6503 3.54044 19.6503 3.54044 19.6503H3.54044H3.54044C3.54044 19.6503 3.54044 19.6503 3.54044 19.6503C3.54044 19.6503 3.54044 19.6503 3.54044 19.6503C3.54044 19.6503 3.54044 19.6503 3.54044 19.6503C3.54044 19.6503 3.54044 19.6503 3.54043 19.6503H3.54043H3.54043C3.54043 19.6503 3.54043 19.6503 3.54043 19.6503C3.54043 19.6503 3.54043 19.6503 3.54043 19.6503C3.54043 19.6503 3.54043 19.6503 3.54043 19.6503C3.54043 19.6503 3.54043 19.6503 3.54043 19.6503H3.54043H3.54043H3.54043C3.54043 19.6503 3.54043 19.6503 3.54043 19.6503C3.54043 19.6503 3.54043 19.6503 3.54043 19.6503C3.54043 19.6503 3.54043 19.6503 3.54043 19.6503C3.54043 19.6503 3.54043 19.6503 3.54043 19.6503C3.54043 19.6503 3.54043 19.6503 3.54043 19.6503C3.54043 19.6503 3.54043 19.6503 3.54043 19.6503H3.54043H3.54043H3.54043H3.54043C3.54043 19.6503 3.54043 19.6503 3.54043 19.6503C3.54043 19.6503 3.54043 19.6503 3.54043 19.6503C3.54043 19.6503 3.54043 19.6503 3.54043 19.6503C3.54043 19.6503 3.54043 19.6503 3.54043 19.6503C3.54043 19.6503 3.54043 19.6503 3.54043 19.6503C3.54043 19.6503 3.54043 19.6503 3.54043 19.6503C3.54043 19.6503 3.54043 19.6503 3.54043 19.6503C3.54043 19.6503 3.54043 19.6503 3.54043 19.6503C3.54043 19.6503 3.54043 19.6503 3.54043 19.6503H3.54043H3.54043H3.54043H3.54043H3.54043H3.54043C3.54043 19.6503 3.54043 19.6503 3.54043 19.6503C3.54043 19.6503 3.54043 19.6503 3.54043 19.6503C3.54043 19.6503 3.54043 19.6503 3.54043 19.6503C3.54043 19.6503 3.54043 19.6503 3.54043 19.6503C3.54042 19.6503 3.54042 19.6503 3.54042 19.6503C3.54042 19.6503 3.54042 19.6503 3.54042 19.6503C3.54042 19.6503 3.54042 19.6503 3.54042 19.6503C3.54042 19.6503 3.54042 19.6503 3.54042 19.6503C3.54042 19.6503 3.54042 19.6503 3.54042 19.6503C3.54042 19.6503 3.54042 19.6503 3.54042 19.6503C3.54042 19.6503 3.54042 19.6503 3.54042 19.6503C3.54042 19.6503 3.54042 19.6503 3.54042 19.6503C3.54042 19.6503 3.54042 19.6503 3.54042 19.6503C3.54042 19.6503 3.54042 19.6503 3.54042 19.6503C3.54042 19.6503 3.54042 19.6503 3.54042 19.6503H3.54042H3.54042H3.54042H3.54042H3.54042H3.54042H3.54042H3.54042H3.54042C3.54042 19.6503 3.54042 19.6503 3.54042 19.6503C3.54042 19.6503 3.54042 19.6503 3.54042 19.6503C3.54042 19.6503 3.54042 19.6503 3.54042 19.6503C3.54042 19.6503 3.54042 19.6503 3.54042 19.6503C3.54042 19.6503 3.54042 19.6503 3.54042 19.6503C3.54042 19.6503 3.54042 19.6503 3.54042 19.6503C3.54042 19.6503 3.54042 19.6503 3.54042 19.6503C3.54042 19.6503 3.54042 19.6503 3.54042 19.6503C3.54042 19.6503 3.54042 19.6503 3.54042 19.6503C3.54042 19.6503 3.54042 19.6503 3.54042 19.6503C3.54042 19.6503 3.54042 19.6503 3.54042 19.6503C3.54042 19.6503 3.54042 19.6503 3.54042 19.6503C3.54042 19.6503 3.54042 19.6503 3.54042 19.6503H3.54042H3.54042H3.54042H3.54042H3.54042C3.54042 19.6503 3.54042 19.6503 3.54042 19.6503C3.54042 19.6503 3.54042 19.6503 3.54042 19.6503C3.54041 19.6503 3.54041 19.6503 3.54041 19.6503C3.54041 19.6503 3.54041 19.6503 3.54041 19.6503C3.54041 19.6503 3.54041 19.6503 3.54041 19.6503C3.54041 19.6503 3.54041 19.6503 3.54041 19.6503C3.54041 19.6503 3.54041 19.6503 3.54041 19.6503C3.54041 19.6503 3.54041 19.6503 3.54041 19.6503H3.54041H3.54041H3.54041H3.54041C3.54041 19.6503 3.54041 19.6503 3.54041 19.6503C3.54041 19.6503 3.54041 19.6503 3.54041 19.6503C3.54041 19.6503 3.54041 19.6503 3.54041 19.6503C3.54041 19.6503 3.54041 19.6503 3.54041 19.6503C3.54041 19.6503 3.54041 19.6503 3.54041 19.6503H3.54041H3.54041H3.54041C3.54041 19.6503 3.54041 19.6503 3.54041 19.6503C3.54041 19.6503 3.54041 19.6503 3.54041 19.6503C3.54041 19.6503 3.54041 19.6503 3.54041 19.6503C3.54041 19.6503 3.54041 19.6503 3.54041 19.6503H3.54041H3.54041C3.54041 19.6503 3.54041 19.6503 3.54041 19.6503C3.54041 19.6503 3.54041 19.6503 3.54041 19.6503C3.54041 19.6503 3.54041 19.6503 3.54041 19.6503C3.54041 19.6503 3.54041 19.6503 3.54041 19.6503H3.54041H3.54041C3.54041 19.6503 3.54041 19.6503 3.54041 19.6503C3.54041 19.6503 3.54041 19.6503 3.54041 19.6503C3.54041 19.6503 3.54041 19.6503 3.54041 19.6503H3.54041C3.54041 19.6503 3.54041 19.6503 3.54041 19.6503C3.54041 19.6503 3.54041 19.6503 3.54041 19.6503C3.54041 19.6503 3.54041 19.6503 3.5404 19.6503H3.5404H3.5404C3.5404 19.6503 3.5404 19.6503 3.5404 19.6503C3.5404 19.6503 3.5404 19.6503 3.5404 19.6503H3.5404C3.5404 19.6503 3.5404 19.6503 3.5404 19.6503C3.5404 19.6503 3.5404 19.6503 3.5404 19.6503C3.5404 19.6503 3.5404 19.6503 3.5404 19.6503H3.5404C3.5404 19.6503 3.5404 19.6503 3.5404 19.6503C3.5404 19.6503 3.5404 19.6503 3.5404 19.6503H3.5404C3.5404 19.6503 3.5404 19.6503 3.5404 19.6503C3.5404 19.6503 3.5404 19.6503 3.5404 19.6503H3.5404C3.5404 19.6503 3.5404 19.6503 3.5404 19.6503C3.5404 19.6503 3.5404 19.6503 3.5404 19.6503H3.5404C3.5404 19.6503 3.5404 19.6503 3.5404 19.6503H3.5404H3.5404C3.5404 19.6503 3.5404 19.6503 3.5404 19.6503H3.5404C3.5404 19.6503 3.5404 19.6503 3.5404 19.6503H3.5404H3.5404C3.5404 19.6503 3.5404 19.6503 3.5404 19.6503H3.5404C3.5404 19.6503 3.5404 19.6503 3.5404 19.6503H3.5404C3.5404 19.6503 3.5404 19.6503 3.54039 19.6503H3.54039C3.54039 19.6503 3.54039 19.6503 3.54039 19.6503H3.54039C3.54039 19.6503 3.54039 19.6503 3.54039 19.6503H3.54039C3.54039 19.6503 3.54039 19.6503 3.54039 19.6503H3.54039C3.54039 19.6503 3.54039 19.6503 3.54039 19.6503H3.54039C3.54039 19.6503 3.54039 19.6503 3.54039 19.6503C3.54039 19.6503 3.54039 19.6503 3.54039 19.6503H3.54039C3.54039 19.6503 3.54039 19.6503 3.54039 19.6503H3.54039C3.54039 19.6503 3.54039 19.6503 3.54039 19.6503C3.54039 19.6503 3.54039 19.6503 3.54039 19.6503H3.54039C3.54039 19.6503 3.54039 19.6503 3.54039 19.6503C3.54039 19.6503 3.54039 19.6503 3.54039 19.6503H3.54039C3.54039 19.6503 3.54039 19.6503 3.54039 19.6503C3.54039 19.6503 3.54039 19.6503 3.54039 19.6503H3.54039C3.54039 19.6503 3.54039 19.6503 3.54039 19.6503C3.54039 19.6503 3.54039 19.6503 3.54039 19.6503C3.54039 19.6503 3.54039 19.6503 3.54038 19.6503H3.54038C3.54038 19.6503 3.54038 19.6503 3.54038 19.6503C3.54038 19.6503 3.54038 19.6503 3.54038 19.6503C3.54038 19.6503 3.54038 19.6503 3.54038 19.6503H3.54038C3.54038 19.6503 3.54038 19.6503 3.54038 19.6503C3.54038 19.6503 3.54038 19.6503 3.54038 19.6503C3.54038 19.6503 3.54038 19.6503 3.54038 19.6503C3.54038 19.6503 3.54038 19.6503 3.54038 19.6503C3.54038 19.6503 3.54038 19.6503 3.54038 19.6503C3.54038 19.6503 3.54038 19.6503 3.54038 19.6503H3.54038C3.54038 19.6503 3.54038 19.6503 3.54038 19.6503C3.54038 19.6503 3.54038 19.6503 3.54038 19.6503C3.54038 19.6503 3.54038 19.6503 3.54038 19.6503C3.54038 19.6503 3.54038 19.6503 3.54038 19.6503C3.54038 19.6503 3.54038 19.6503 3.54038 19.6503C3.54038 19.6503 3.54038 19.6503 3.54038 19.6503C3.54038 19.6503 3.54038 19.6503 3.54038 19.6503C3.54038 19.6503 3.54038 19.6503 3.54038 19.6503C3.54038 19.6503 3.54038 19.6503 3.54038 19.6503C3.54038 19.6503 3.54038 19.6503 3.54037 19.6503C3.54037 19.6503 3.54037 19.6503 3.54037 19.6503C3.54037 19.6503 3.54037 19.6503 3.54037 19.6503C3.54037 19.6503 3.54037 19.6503 3.54037 19.6503C3.54037 19.6503 3.54037 19.6503 3.54037 19.6503C3.54037 19.6503 3.54037 19.6503 3.54037 19.6503C3.54037 19.6503 3.54037 19.6503 3.54037 19.6503C3.54037 19.6503 3.54037 19.6503 3.54037 19.6503C3.54037 19.6503 3.54037 19.6503 3.54037 19.6503C3.54037 19.6503 3.54037 19.6503 3.54037 19.6503C3.54037 19.6503 3.54037 19.6503 3.54037 19.6503C3.54037 19.6503 3.54037 19.6503 3.54037 19.6503C3.54037 19.6503 3.54037 19.6503 3.54037 19.6503C3.54037 19.6503 3.54037 19.6503 3.54037 19.6503C3.54037 19.6503 3.54037 19.6503 3.54037 19.6503C3.54037 19.6503 3.54037 19.6503 3.54037 19.6503C3.54037 19.6503 3.54037 19.6503 3.54037 19.6503C3.54037 19.6503 3.54037 19.6503 3.54037 19.6503C3.54037 19.6503 3.54037 19.6503 3.54037 19.6503C3.54037 19.6503 3.54037 19.6503 3.54037 19.6503C3.54036 19.6503 3.54036 19.6503 3.54036 19.6503C3.54036 19.6503 3.54036 19.6503 3.54036 19.6503C3.54036 19.6503 3.54036 19.6503 3.54036 19.6503C3.54036 19.6503 3.54036 19.6503 3.54036 19.6503C3.54036 19.6503 3.54036 19.6503 3.54036 19.6503C3.54036 19.6503 3.54036 19.6503 3.54036 19.6503C3.54036 19.6503 3.54036 19.6503 3.54036 19.6503C3.54036 19.6503 3.54036 19.6503 3.54036 19.6503C3.54036 19.6503 3.54036 19.6503 3.54036 19.6503C3.54036 19.6503 3.54036 19.6503 3.54036 19.6503C3.54036 19.6503 3.54036 19.6503 3.54036 19.6503C3.54036 19.6503 3.54036 19.6503 3.54036 19.6503C3.54036 19.6503 3.54036 19.6503 3.54036 19.6503C3.54036 19.6503 3.54036 19.6503 3.54036 19.6503C3.54036 19.6503 3.54036 19.6503 3.54036 19.6503C3.54036 19.6503 3.54036 19.6503 3.54036 19.6503C3.54036 19.6503 3.54036 19.6503 3.54036 19.6503C3.54035 19.6503 3.54035 19.6503 3.54035 19.6503C3.54035 19.6503 3.54035 19.6503 3.54035 19.6503C3.54035 19.6503 3.54035 19.6503 3.54035 19.6503C3.54035 19.6503 3.54035 19.6503 3.54035 19.6503C3.54035 19.6503 3.54035 19.6503 3.54035 19.6503C3.54035 19.6503 3.54035 19.6503 3.54035 19.6503C3.54035 19.6503 3.54035 19.6503 3.54035 19.6503C3.54035 19.6503 3.54035 19.6503 3.54035 19.6503C3.54035 19.6503 3.54035 19.6503 3.54035 19.6503C3.54035 19.6503 3.54035 19.6503 3.54035 19.6503C3.54035 19.6503 3.54035 19.6503 3.54035 19.6503C3.54035 19.6503 3.54035 19.6503 3.54035 19.6503C3.54035 19.6503 3.54035 19.6503 3.54035 19.6503C3.54035 19.6503 3.54035 19.6503 3.54035 19.6503C3.54035 19.6503 3.54035 19.6503 3.54035 19.6503C3.54035 19.6503 3.54035 19.6503 3.54034 19.6503C3.54034 19.6503 3.54034 19.6503 3.54034 19.6503C3.54034 19.6503 3.54034 19.6503 3.54034 19.6503C3.54034 19.6503 3.54034 19.6503 3.54034 19.6503C3.54034 19.6503 3.54034 19.6503 3.54034 19.6503C3.54034 19.6503 3.54034 19.6503 3.54034 19.6503C3.54034 19.6503 3.54034 19.6503 3.54034 19.6503C3.54034 19.6503 3.54034 19.6503 3.54034 19.6503C3.54034 19.6503 3.54034 19.6503 3.54034 19.6503C3.54034 19.6503 3.54034 19.6503 3.54034 19.6503C3.54034 19.6503 3.54034 19.6503 3.54034 19.6503C3.54034 19.6503 3.54034 19.6503 3.54034 19.6503C3.54034 19.6503 3.54034 19.6503 3.54034 19.6503C3.54034 19.6503 3.54034 19.6503 3.54034 19.6503C3.54034 19.6503 3.54034 19.6503 3.54033 19.6503C3.54033 19.6503 3.54033 19.6503 3.54033 19.6503C3.54033 19.6503 3.54033 19.6503 3.54033 19.6503C3.54033 19.6503 3.54033 19.6503 3.54033 19.6503C3.54033 19.6503 3.54033 19.6503 3.54033 19.6503C3.54033 19.6503 3.54033 19.6503 3.54033 19.6503C3.54033 19.6503 3.54033 19.6503 3.54033 19.6503C3.54033 19.6503 3.54033 19.6503 3.54033 19.6503C3.54033 19.6503 3.54033 19.6503 3.54033 19.6503C3.54033 19.6503 3.54033 19.6503 3.54033 19.6503C3.54033 19.6503 3.54033 19.6503 3.54033 19.6503C3.54033 19.6503 3.54033 19.6503 3.54033 19.6503C3.54033 19.6503 3.54033 19.6503 3.54033 19.6503C3.54033 19.6503 3.54032 19.6503 3.54032 19.6503C3.54032 19.6503 3.54032 19.6503 3.54032 19.6503C3.54032 19.6503 3.54032 19.6503 3.54032 19.6503C3.54032 19.6503 3.54032 19.6503 3.54032 19.6503C3.54032 19.6503 3.54032 19.6503 3.54032 19.6503C3.54032 19.6503 3.54032 19.6503 3.54032 19.6503C3.54032 19.6503 3.54032 19.6503 3.54032 19.6503C3.54032 19.6503 3.54032 19.6503 3.54032 19.6503C3.54032 19.6503 3.54032 19.6503 3.54032 19.6503C3.54032 19.6503 3.54032 19.6503 3.54032 19.6503C3.54032 19.6503 3.54032 19.6503 3.54032 19.6503C3.54032 19.6503 3.54032 19.6503 3.54032 19.6503C3.54032 19.6503 3.54031 19.6503 3.54031 19.6503C3.54031 19.6503 3.54031 19.6503 3.54031 19.6503C3.54031 19.6503 3.54031 19.6503 3.54031 19.6503C3.54031 19.6503 3.54031 19.6503 3.54031 19.6503C3.54031 19.6503 3.54031 19.6503 3.54031 19.6503C3.54031 19.6503 3.54031 19.6503 3.54031 19.6503C3.54031 19.6503 3.54031 19.6503 3.54031 19.6503C3.54031 19.6503 3.54031 19.6503 3.54031 19.6503C3.54031 19.6503 3.54031 19.6503 3.54031 19.6503C3.54031 19.6503 3.54031 19.6503 3.54031 19.6503C3.54031 19.6503 3.54031 19.6503 3.54031 19.6503C3.54031 19.6503 3.5403 19.6503 3.5403 19.6503C3.5403 19.6503 3.5403 19.6503 3.5403 19.6503C3.5403 19.6503 3.5403 19.6503 3.5403 19.6503C3.5403 19.6503 3.5403 19.6503 3.5403 19.6503C3.5403 19.6503 3.5403 19.6503 3.5403 19.6503C3.5403 19.6503 3.5403 19.6503 3.5403 19.6503C3.5403 19.6503 3.5403 19.6503 3.5403 19.6503C3.5403 19.6503 3.5403 19.6503 3.5403 19.6503C3.5403 19.6503 3.5403 19.6503 3.5403 19.6503C3.5403 19.6503 3.5403 19.6503 3.5403 19.6503C3.5403 19.6503 3.5403 19.6503 3.54029 19.6503V23.6503ZM3.54067 23.6503C5.52874 23.6502 7.74786 22.756 10.0351 21.3751L7.96782 17.9508C5.88669 19.2072 4.43126 19.6503 3.54043 19.6503L3.54067 23.6503ZM10.0302 21.3781C10.5073 21.0919 11.0021 20.8174 11.4989 20.5635L9.67833 17.0018C9.10107 17.2969 8.52726 17.6152 7.97272 17.9478L10.0302 21.3781ZM11.4988 20.5636L11.8064 20.4063L9.986 16.8446L9.67839 17.0018L11.4988 20.5636ZM12.8242 18.0935L12.7327 17.7618L8.87671 18.8257L8.96823 19.1574L12.8242 18.0935ZM12.7326 17.7617C12.1542 15.6656 10.7439 10.4586 9.9805 6.83586L6.06646 7.66066C6.85872 11.4203 8.30091 16.739 8.87674 18.8258L12.7326 17.7617ZM9.98059 6.83627C9.61833 5.11543 9.50777 3.848 9.56961 3.00655L5.58037 2.71338C5.479 4.09272 5.6702 5.77825 6.06637 7.66025L9.98059 6.83627ZM9.56961 3.0065L9.62838 2.20656L5.63913 1.91348L5.58036 2.71343L9.56961 3.0065ZM6.63387 0.327901L5.93637 0.730543L7.93613 4.19478L8.63364 3.79214L6.63387 0.327901ZM5.93635 0.730556C2.55098 2.68485 0.0558788 5.52631 -1.16564 8.98565L2.60612 10.3175C3.47397 7.85973 5.27771 5.72943 7.93616 4.19477L5.93635 0.730556ZM-1.16564 8.98565C-1.82875 10.8636 -2.09341 12.869 -1.97101 14.9334L2.02198 14.6967C1.92906 13.1295 2.13192 11.6604 2.60612 10.3175L-1.16564 8.98565Z" fill="white" mask="url(#path-1-inside-1_33_226)"/>
</svg>
